<svg width="24" height="24" viewBox="0 0 24 24" fill="none" xmlns="http://www.w3.org/2000/svg">
<path d="M12 2C13.6124 2 14.8126 2.93812 15.9023 4.32227C16.9799 5.69107 18.1178 7.71417 19.5596 10.2705L19.9228 10.915C21.1172 13.0326 22.0771 14.7286 22.581 16.0938C23.0925 17.4796 23.2418 18.8127 22.4141 20C21.6162 21.1444 20.2972 21.5888 18.7314 21.7949C17.1579 22.002 15.0447 22 12.3633 22H11.6367C8.95527 22 6.84211 22.002 5.26854 21.7949C3.70279 21.5888 2.38378 21.1444 1.58593 20C0.758165 18.8127 0.907429 17.4796 1.41893 16.0938C1.92285 14.7286 2.88282 13.0326 4.07714 10.915L4.44042 10.2705C5.88222 7.71416 7.02009 5.69107 8.09764 4.32227C9.18738 2.93812 10.3876 2 12 2ZM12 4C11.3017 4 10.6161 4.35557 9.66893 5.55859C8.70972 6.77695 7.659 8.63524 6.18261 11.2529L5.81932 11.8975C4.58862 14.0795 3.72962 15.6085 3.29491 16.7861C2.86782 17.9432 2.9584 18.4718 3.22655 18.8564C3.52466 19.2839 4.10993 19.6257 5.52928 19.8125C6.94104 19.9983 8.89563 20 11.6367 20H12.3633C15.1043 20 17.0589 19.9983 18.4707 19.8125C19.89 19.6257 20.4753 19.2839 20.7734 18.8564C21.0416 18.4718 21.1322 17.9432 20.7051 16.7861C20.2704 15.6085 19.4114 14.0795 18.1807 11.8975L17.8174 11.2529C16.341 8.63524 15.2902 6.77695 14.331 5.55859C13.3839 4.35557 12.6983 4 12 4Z" fill="#191919"/>
<path d="M11 13V8C11 7.44772 11.4477 7 12 7C12.5523 7 13 7.44772 13 8V13C13 13.5523 12.5523 14 12 14C11.4477 14 11 13.5523 11 13Z" fill="#191919"/>
<path d="M13 16C13 16.5523 12.5523 17 12 17C11.4477 17 11 16.5523 11 16C11 15.4477 11.4477 15 12 15C12.5523 15 13 15.4477 13 16Z" fill="#191919"/>
</svg>
