<svg width="24" height="24" viewBox="0 0 24 24" fill="none" xmlns="http://www.w3.org/2000/svg">
<path d="M17.749 9.00488C17.749 5.65308 15.1404 3 12 3C8.85961 3 6.25102 5.65308 6.25098 9.00488V9.70996C6.2509 10.7448 5.95605 11.7594 5.39942 12.626L4.29199 14.3496C3.6241 15.3894 4.16364 16.755 5.24317 17.0605C9.66724 18.3128 14.3328 18.3128 18.7568 17.0605C19.8364 16.755 20.3759 15.3894 19.708 14.3496L18.6006 12.626C18.044 11.7594 17.7491 10.7448 17.749 9.70996V9.00488ZM19.749 9.70996C19.7491 10.366 19.9362 11.0046 20.2832 11.5449L21.3906 13.2695C22.7457 15.3793 21.7408 18.2949 19.3018 18.9854C14.5215 20.3384 9.47852 20.3384 4.69824 18.9854C2.25919 18.2949 1.25432 15.3793 2.60938 13.2695L3.7168 11.5449C4.06378 11.0046 4.2509 10.366 4.25098 9.70996V9.00488C4.25102 4.61929 7.68556 1 12 1C16.3144 1 19.749 4.61929 19.749 9.00488V9.70996Z" fill="#191919"/>
<path d="M12 23C14.4782 23 16.6295 21.5038 17.4365 19.3506C17.6301 18.8335 17.3676 18.2573 16.8506 18.0635C16.3335 17.8699 15.7573 18.1324 15.5635 18.6494C15.0603 19.9916 13.6768 21 12 21C10.3232 21 8.93971 19.9916 8.43653 18.6494C8.24276 18.1324 7.66649 17.8699 7.14942 18.0635C6.63238 18.2573 6.36992 18.8335 6.56348 19.3506C7.37047 21.5038 9.52187 23 12 23Z" fill="#191919"/>
</svg>
