<svg width="24" height="24" viewBox="0 0 24 24" fill="none" xmlns="http://www.w3.org/2000/svg">
<path d="M21 12C21 10.0861 20.9977 8.75128 20.8623 7.74414C20.7308 6.7658 20.4901 6.24792 20.1211 5.87891C19.7521 5.5099 19.2342 5.26924 18.2559 5.1377C17.2487 5.00229 15.9139 5 14 5H10C8.08611 5 6.75128 5.00229 5.74414 5.1377C4.7658 5.26924 4.24792 5.5099 3.87891 5.87891C3.5099 6.24792 3.26924 6.7658 3.1377 7.74414C3.00229 8.75128 3 10.0861 3 12V14C3 15.9139 3.00229 17.2487 3.1377 18.2559C3.26924 19.2342 3.5099 19.7521 3.87891 20.1211C4.24792 20.4901 4.7658 20.7308 5.74414 20.8623C6.75128 20.9977 8.08611 21 10 21H14C15.9139 21 17.2487 20.9977 18.2559 20.8623C19.2342 20.7308 19.7521 20.4901 20.1211 20.1211C20.4901 19.7521 20.7308 19.2342 20.8623 18.2559C20.9977 17.2487 21 15.9139 21 14V12ZM23 14C23 15.8574 23.0022 17.3511 22.8447 18.5225C22.6834 19.7226 22.3377 20.7326 21.5352 21.5352C20.7326 22.3377 19.7226 22.6834 18.5225 22.8447C17.3511 23.0022 15.8574 23 14 23H10C8.14265 23 6.64892 23.0022 5.47754 22.8447C4.27745 22.6834 3.26738 22.3377 2.46485 21.5352C1.66232 20.7326 1.31664 19.7226 1.15528 18.5225C0.997788 17.3511 1 15.8574 1 14V12C1 10.1427 0.997788 8.64892 1.15528 7.47754C1.31664 6.27745 1.66231 5.26738 2.46485 4.46485C3.26738 3.66231 4.27745 3.31664 5.47754 3.15528C6.64892 2.99779 8.14265 3 10 3H14C15.8574 3 17.3511 2.99779 18.5225 3.15528C19.7226 3.31664 20.7326 3.66232 21.5352 4.46485C22.3377 5.26738 22.6834 6.27745 22.8447 7.47754C23.0022 8.64892 23 10.1427 23 12V14Z" fill="#191919"/>
<path d="M6 4V2.5C6 1.94772 6.44772 1.5 7 1.5C7.55228 1.5 8 1.94772 8 2.5V4C8 4.55228 7.55228 5 7 5C6.44772 5 6 4.55228 6 4Z" fill="#191919"/>
<path d="M16 4V2.5C16 1.94772 16.4477 1.5 17 1.5C17.5523 1.5 18 1.94772 18 2.5V4C18 4.55228 17.5523 5 17 5C16.4477 5 16 4.55228 16 4Z" fill="#191919"/>
<path d="M21.5 8C22.0523 8 22.5 8.44772 22.5 9C22.5 9.55228 22.0523 10 21.5 10H2.5C1.94772 10 1.5 9.55228 1.5 9C1.5 8.44772 1.94772 8 2.5 8H21.5Z" fill="#191919"/>
<path d="M18 17C18 17.5523 17.5523 18 17 18C16.4477 18 16 17.5523 16 17C16 16.4477 16.4477 16 17 16C17.5523 16 18 16.4477 18 17Z" fill="#191919"/>
<path d="M18 13C18 13.5523 17.5523 14 17 14C16.4477 14 16 13.5523 16 13C16 12.4477 16.4477 12 17 12C17.5523 12 18 12.4477 18 13Z" fill="#191919"/>
<path d="M13 17C13 17.5523 12.5523 18 12 18C11.4477 18 11 17.5523 11 17C11 16.4477 11.4477 16 12 16C12.5523 16 13 16.4477 13 17Z" fill="#191919"/>
<path d="M13 13C13 13.5523 12.5523 14 12 14C11.4477 14 11 13.5523 11 13C11 12.4477 11.4477 12 12 12C12.5523 12 13 12.4477 13 13Z" fill="#191919"/>
<path d="M8 17C8 17.5523 7.55228 18 7 18C6.44772 18 6 17.5523 6 17C6 16.4477 6.44772 16 7 16C7.55228 16 8 16.4477 8 17Z" fill="#191919"/>
<path d="M8 13C8 13.5523 7.55228 14 7 14C6.44772 14 6 13.5523 6 13C6 12.4477 6.44772 12 7 12C7.55228 12 8 12.4477 8 13Z" fill="#191919"/>
</svg>
