<svg width="24" height="24" viewBox="0 0 24 24" fill="none" xmlns="http://www.w3.org/2000/svg">
<path d="M1 12V2C1 1.44772 1.44772 1 2 1C2.55229 1 3 1.44772 3 2V12C3 14.3853 3.00181 16.0741 3.17383 17.3535C3.34199 18.604 3.65646 19.3127 4.17188 19.8281C4.68729 20.3435 5.39602 20.658 6.64648 20.8262C7.92593 20.9982 9.61471 21 12 21H22C22.5523 21 23 21.4477 23 22C23 22.5523 22.5523 23 22 23H12C9.67146 23 7.82449 23.0017 6.38086 22.8076C4.9084 22.6096 3.70682 22.1912 2.75781 21.2422C1.80881 20.2932 1.39035 19.0916 1.19238 17.6191C0.998339 16.1755 1 14.3285 1 12Z" fill="#191919"/>
<path d="M18.2168 6.37808C18.5602 5.94559 19.1896 5.87352 19.6221 6.21695C20.0546 6.56041 20.1267 7.18972 19.7832 7.62222L16.665 11.548C16.4348 11.8379 16.2317 12.0955 16.0498 12.2951C15.8641 12.4989 15.6462 12.7063 15.3633 12.8576C14.6607 13.2332 13.8208 13.2511 13.1025 12.9064C12.8134 12.7676 12.5869 12.5697 12.3926 12.3742C12.2022 12.1827 11.9877 11.935 11.7451 11.6554C11.4844 11.3549 11.3208 11.1675 11.1894 11.0353C11.0633 10.9085 11.024 10.8927 11.0322 10.8966C10.8886 10.8278 10.7205 10.8323 10.5801 10.9074C10.5718 10.9128 10.5274 10.9435 10.4287 11.0519C10.3032 11.1896 10.1487 11.384 9.90136 11.6955L6.7832 15.6222C6.43972 16.0547 5.8104 16.1268 5.37792 15.7834C4.94548 15.4399 4.87334 14.8106 5.21679 14.3781L8.33496 10.4513C8.56504 10.1616 8.76842 9.90476 8.95019 9.70523C9.13591 9.50138 9.35476 9.29398 9.63769 9.14273C10.3401 8.76741 11.1794 8.74936 11.8975 9.0939C12.1867 9.23271 12.414 9.43054 12.6084 9.62613C12.7987 9.8176 13.0134 10.0654 13.2559 10.3449C13.5164 10.6452 13.6792 10.8329 13.8105 10.965C13.9377 11.0929 13.9767 11.108 13.9678 11.1037C14.1114 11.1726 14.2794 11.168 14.4199 11.0929C14.4276 11.088 14.4717 11.0577 14.5713 10.9484C14.6967 10.8107 14.8514 10.6162 15.0986 10.3048L18.2168 6.37808Z" fill="#191919"/>
</svg>
