<svg width="24" height="24" viewBox="0 0 24 24" fill="none" xmlns="http://www.w3.org/2000/svg">
<path d="M21 12C21 7.02944 16.9706 3 12 3C7.02944 3 3 7.02944 3 12C3 16.9706 7.02944 21 12 21C16.9706 21 21 16.9706 21 12ZM23 12C23 18.0751 18.0751 23 12 23C5.92487 23 1 18.0751 1 12C1 5.92487 5.92487 1 12 1C18.0751 1 23 5.92487 23 12Z" fill="#191919"/>
<path d="M13.793 8.79295C14.1835 8.40245 14.8165 8.40243 15.207 8.79295C15.5975 9.18347 15.5975 9.81649 15.207 10.207L13.414 12L15.207 13.7929C15.5975 14.1835 15.5975 14.8165 15.207 15.207C14.8165 15.5975 14.1835 15.5975 13.793 15.207L12 13.414L10.207 15.207C9.81649 15.5975 9.18348 15.5975 8.79295 15.207C8.40243 14.8165 8.40243 14.1835 8.79295 13.7929L10.5859 12L8.79295 10.207C8.40243 9.81649 8.40243 9.18347 8.79295 8.79295C9.18348 8.40244 9.8165 8.40243 10.207 8.79295L12 10.5859L13.793 8.79295Z" fill="#191919"/>
</svg>
