<svg width="24" height="24" viewBox="0 0 24 24" fill="none" xmlns="http://www.w3.org/2000/svg">
<path d="M21 12C21 7.02944 16.9706 3 12 3C7.02944 3 3 7.02944 3 12C3 16.9706 7.02944 21 12 21C16.9706 21 21 16.9706 21 12ZM23 12C23 18.0751 18.0751 23 12 23C5.92487 23 1 18.0751 1 12C1 5.92487 5.92487 1 12 1C18.0751 1 23 5.92487 23 12Z" fill="#191919"/>
<path d="M14.793 8.79295C15.1835 8.40243 15.8165 8.40243 16.207 8.79295C16.5975 9.18348 16.5975 9.81649 16.207 10.207L11.207 15.207C10.8165 15.5975 10.1835 15.5975 9.79295 15.207L7.79295 13.207C7.40243 12.8165 7.40243 12.1835 7.79295 11.793C8.18348 11.4024 8.81649 11.4024 9.20702 11.793L10.5 13.0859L14.793 8.79295Z" fill="#191919"/>
</svg>
