<svg width="24" height="24" viewBox="0 0 24 24" fill="none" xmlns="http://www.w3.org/2000/svg">
<path d="M21.7568 10.6152C22.2958 10.688 23 11.1216 23 12C23 16.0727 20.7861 19.6268 17.501 21.5273C17.023 21.8038 16.4114 21.6409 16.1348 21.1631C15.8583 20.6851 16.0212 20.0735 16.499 19.7969C18.6994 18.524 20.3082 16.3483 20.8232 13.7783C19.465 15.1479 17.5832 16 15.5 16C14.9477 16 14.5 15.5523 14.5 15C14.5 14.4477 14.9477 14 15.5 14C17.4969 14 19.2461 12.9362 20.2109 11.3398L20.2832 11.2314C20.6591 10.7125 21.2732 10.55 21.7568 10.6152ZM8 8.5C8 6.41679 8.85111 4.53401 10.2207 3.17578C6.10235 4.00164 3 7.63856 3 12C3 12.9424 3.14478 13.849 3.41211 14.7002C3.57757 15.227 3.28452 15.7885 2.75781 15.9541C2.23097 16.1196 1.66947 15.8266 1.50391 15.2998C1.17636 14.2569 1 13.148 1 12C1 5.92487 5.92487 1 12 1C12.8784 1 13.312 1.70425 13.3848 2.24316C13.4543 2.75896 13.2648 3.42368 12.6602 3.78906C11.0638 4.75385 10 6.50308 10 8.5C10 9.05229 9.55229 9.5 9 9.5C8.44772 9.5 8 9.05229 8 8.5Z" fill="#191919"/>
<path d="M4.0957 15.5293C4.09577 12.9803 6.2547 11 8.80957 11C10.9791 11 12.8561 12.4232 13.3789 14.4141C14.9124 15.1466 16 16.6688 16 18.4707C15.9999 21.0195 13.8408 22.9998 11.2861 23H4.78613C2.74406 23 1 21.4142 1 19.3525C1.0002 17.5256 2.3697 16.0736 4.10254 15.7666C4.0983 15.688 4.0957 15.6088 4.0957 15.5293ZM6.0957 15.5293C6.0957 15.6709 6.10801 15.8096 6.13184 15.9443C6.39249 16.0399 6.64017 16.1614 6.87012 16.3076C7.33612 16.604 7.47317 17.2225 7.17676 17.6885C6.88029 18.1543 6.26279 18.2914 5.79688 17.9951C5.60394 17.8724 5.38264 17.7831 5.14258 17.7383C5.02835 17.717 4.90892 17.7061 4.78613 17.7061C3.75135 17.7061 3.00023 18.4905 3 19.3525C3 20.2147 3.75119 21 4.78613 21H11.2861C12.8337 20.9998 13.9999 19.82 14 18.4707C14 17.3977 13.2721 16.4403 12.1885 16.084C11.9079 15.9917 11.6045 15.9415 11.2861 15.9414C10.9612 15.9414 10.6516 15.994 10.3662 16.0898C9.84267 16.2657 9.27545 15.9835 9.09961 15.46C8.92405 14.9365 9.20608 14.3701 9.72949 14.1943C10.1107 14.0663 10.5133 13.984 10.9297 13.9541C10.4396 13.3807 9.68484 13 8.80957 13C7.26183 13 6.09577 14.1799 6.0957 15.5293Z" fill="#191919"/>
</svg>
