<svg width="24" height="24" viewBox="0 0 24 24" fill="none" xmlns="http://www.w3.org/2000/svg">
<path d="M12 1C12.8401 1 13.3541 1.59746 13.6641 2.05762C13.9893 2.54044 14.3253 3.23419 14.7119 4.02637L16.9482 8.61035C17.1695 9.06374 17.3046 9.33729 17.4189 9.52344C17.4235 9.53091 17.4293 9.53719 17.4336 9.54395C17.5819 9.40462 17.7726 9.1908 18.0869 8.83301C18.669 8.17032 19.1556 7.61406 19.5586 7.2373C19.7623 7.04685 19.9876 6.86089 20.2314 6.72461C20.4801 6.58572 20.8094 6.46437 21.1934 6.49805C21.7383 6.54591 22.2183 6.82177 22.5518 7.22461C22.9703 7.73057 23.004 8.41734 23 8.93262C22.9955 9.51381 22.9221 10.2833 22.834 11.2197L22.6045 13.6553C22.4179 15.638 22.2713 17.2097 22.0147 18.4326C21.7545 19.6723 21.3567 20.6898 20.5752 21.4893C19.7789 22.3038 18.8044 22.6677 17.6406 22.8379C16.5177 23.0021 15.1024 23 13.3604 23H10.6397C8.89759 23 7.48232 23.0021 6.35938 22.8379C5.19565 22.6677 4.22107 22.3038 3.42481 21.4893C2.64335 20.6898 2.24552 19.6723 1.98536 18.4326C1.72874 17.2097 1.58211 15.638 1.39551 13.6553L1.16602 11.2197C1.07788 10.2833 1.00452 9.51381 1 8.93262C0.996015 8.41734 1.02967 7.73057 1.44825 7.22461L1.58008 7.0791C1.90266 6.75594 2.32983 6.53993 2.80664 6.49805L2.94825 6.49316C3.27182 6.49573 3.55106 6.60311 3.76856 6.72461C4.01237 6.86089 4.23767 7.04685 4.44141 7.2373C4.84443 7.61406 5.33097 8.17031 5.91309 8.83301C6.22701 9.19038 6.4172 9.4046 6.56543 9.54395C6.56978 9.53706 6.57637 9.53108 6.58106 9.52344C6.69543 9.33729 6.8305 9.06374 7.05176 8.61035L9.28809 4.02637C9.67468 3.23419 10.0107 2.54044 10.3359 2.05762C10.6459 1.59746 11.1599 1 12 1ZM11.9951 3.1748C11.7669 3.51357 11.5012 4.05244 11.0859 4.90332L8.84864 9.4873C8.64566 9.90324 8.46246 10.2817 8.28516 10.5703C8.10831 10.8581 7.85446 11.1999 7.44434 11.4062C7.08533 11.5868 6.67956 11.6544 6.27735 11.5908C5.81055 11.5171 5.46735 11.2525 5.22168 11.0254C4.97683 10.799 4.70434 10.4882 4.41016 10.1533C3.79755 9.45591 3.38847 8.9911 3.0752 8.69824C3.05191 8.67647 3.02817 8.65877 3.00782 8.64062C3.00309 8.71022 2.99911 8.80081 3 8.91699C3.00369 9.39081 3.06539 10.0564 3.15723 11.0322L3.38672 13.4678C3.57776 15.4976 3.71453 16.9356 3.94239 18.0215C4.16668 19.0903 4.45448 19.6806 4.85547 20.0908C5.24178 20.486 5.74512 20.7271 6.64942 20.8594C7.59436 20.9975 8.83754 21 10.6397 21H13.3604C15.1625 21 16.4057 20.9975 17.3506 20.8594C18.2549 20.7271 18.7582 20.486 19.1445 20.0908C19.5455 19.6806 19.8333 19.0903 20.0576 18.0215C20.2855 16.9356 20.4222 15.4976 20.6133 13.4678L20.8428 11.0322C20.9346 10.0564 20.9963 9.39081 21 8.91699C21.0009 8.80077 20.9959 8.71022 20.9912 8.64062C20.971 8.65864 20.9479 8.67667 20.9248 8.69824C20.6115 8.9911 20.2025 9.45591 19.5898 10.1533C19.2957 10.4882 19.0232 10.799 18.7783 11.0254C18.5327 11.2525 18.1895 11.5171 17.7227 11.5908C17.3204 11.6544 16.9147 11.5868 16.5557 11.4062C16.1455 11.1999 15.8917 10.8581 15.7148 10.5703C15.5375 10.2817 15.3543 9.90324 15.1514 9.4873L12.9141 4.90332C12.4988 4.05244 12.2331 3.51357 12.0049 3.1748C12.0033 3.17246 12.0016 3.17027 12 3.16797C11.9984 3.17027 11.9967 3.17246 11.9951 3.1748Z" fill="#191919"/>
<path d="M12.1133 10.505C12.6676 10.5502 13.01 10.9197 13.1846 11.1476C13.3701 11.3898 13.5539 11.7238 13.7275 12.0353L13.8262 12.212C13.8267 12.2129 13.8267 12.2141 13.8272 12.215L14.0088 12.256C14.3438 12.3318 14.7119 12.4125 14.9961 12.5245C15.2803 12.6366 15.7033 12.8652 15.9014 13.3644L15.9375 13.4679L15.9658 13.5714C16.0842 14.0856 15.8762 14.5116 15.7168 14.7648C15.5536 15.0239 15.3062 15.3103 15.0762 15.5792L14.9463 15.7316C14.9415 15.7372 14.9361 15.742 14.9316 15.7472C14.9325 15.7565 14.9336 15.7662 14.9346 15.7765L14.9541 15.9796C14.989 16.3399 15.0283 16.7196 15.0147 17.0255C15.001 17.3332 14.9261 17.8619 14.4483 18.2247C13.954 18.5999 13.4132 18.5106 13.1074 18.423C12.8146 18.339 12.4725 18.1786 12.1592 18.0343V18.0333L12 17.9601L11.8408 18.0343C11.5275 18.1786 11.1854 18.339 10.8926 18.423C10.5868 18.5106 10.046 18.5999 9.55177 18.2247C9.0739 17.8619 8.99907 17.3332 8.98536 17.0255C8.97175 16.7196 9.011 16.3399 9.04591 15.9796L9.06544 15.7765C9.06643 15.7662 9.0665 15.7564 9.06739 15.7472C9.06305 15.7421 9.05837 15.737 9.05372 15.7316L8.92384 15.5792C8.69384 15.3103 8.44639 15.0239 8.28321 14.7648C8.11326 14.4948 7.88836 14.0283 8.06251 13.4679L8.09864 13.3644C8.29673 12.8652 8.71975 12.6366 9.00392 12.5245C9.28811 12.4125 9.65624 12.3318 9.99122 12.256L10.1719 12.215C10.1725 12.2139 10.1733 12.2131 10.1738 12.212L10.2725 12.0353C10.4461 11.7238 10.6299 11.3898 10.8154 11.1476C11.0016 10.9046 11.3787 10.5001 12 10.5001L12.1133 10.505ZM11.9209 13.1857C11.8564 13.3014 11.6965 13.6293 11.4063 13.8497C11.1096 14.0749 10.7468 14.1362 10.6231 14.1642L10.4326 14.2072C10.4185 14.2104 10.4043 14.2128 10.3906 14.2159C10.408 14.2363 10.4259 14.2578 10.4443 14.2794L10.5742 14.4318C10.6522 14.5229 10.8498 14.7311 10.9697 15.0128L11.0156 15.1388L11.0488 15.2667C11.1096 15.5641 11.0675 15.8477 11.0557 15.9698L11.0361 16.173C11.0352 16.1832 11.0342 16.1933 11.0332 16.2032L11.1836 16.1349C11.2963 16.0829 11.6257 15.9073 12 15.9073C12.3743 15.9073 12.7037 16.0829 12.8164 16.1349L12.9658 16.2032C12.9649 16.1933 12.9649 16.1831 12.9639 16.173L12.9443 15.9698C12.9308 15.8303 12.8784 15.4797 12.9844 15.1388L13.0303 15.0128C13.1503 14.7311 13.3478 14.5229 13.4258 14.4318L13.5557 14.2794C13.574 14.258 13.5912 14.2361 13.6084 14.2159C13.595 14.2129 13.5812 14.2103 13.5674 14.2072L13.377 14.1642C13.2532 14.1362 12.8904 14.0749 12.5938 13.8497C12.3035 13.6293 12.1436 13.3014 12.0791 13.1857L12 13.0441L11.9209 13.1857Z" fill="#191919"/>
</svg>
