<svg width="24" height="24" viewBox="0 0 24 24" fill="none" xmlns="http://www.w3.org/2000/svg">
<path d="M17.9365 6.86878C19.0949 5.71041 20.9725 5.71041 22.1309 6.86878C23.2892 8.02716 23.2892 9.90474 22.1309 11.0631L21.668 11.527L17.4072 15.7877C17.1354 16.0596 16.9414 16.2548 16.7226 16.4254C16.4777 16.6164 16.213 16.7811 15.9326 16.9147C15.6823 17.034 15.4203 17.1193 15.0557 17.2409L13.0137 17.9215C12.4639 18.1045 11.8579 17.9611 11.4482 17.5514C11.0385 17.1417 10.8951 16.5357 11.0781 15.986L11.7588 13.944C11.8803 13.5793 11.9657 13.3174 12.085 13.067C12.2186 12.7867 12.3832 12.5219 12.5742 12.277C12.7448 12.0583 12.9401 11.8642 13.2119 11.5924L17.4726 7.33167L17.9365 6.86878ZM14.6269 13.0065C14.322 13.3115 14.2289 13.4071 14.1514 13.5065C14.0496 13.6369 13.9618 13.7781 13.8906 13.9274C13.8364 14.0412 13.7926 14.1667 13.6562 14.5758L13.3047 15.6305L13.3682 15.694L14.4238 15.3434C14.8329 15.207 14.9585 15.1632 15.0723 15.109C15.2215 15.0379 15.3628 14.95 15.4932 14.8483C15.5925 14.7708 15.6882 14.6777 15.9932 14.3727L19.1601 11.2057C18.9093 11.0478 18.6497 10.8506 18.3994 10.6002C18.1487 10.3495 17.951 10.0897 17.793 9.83851L14.6269 13.0065ZM20.7168 8.28284C20.3395 7.90552 19.7279 7.90552 19.3506 8.28284L19.2793 8.35316C19.3672 8.59097 19.5251 8.89589 19.8144 9.18519C20.1033 9.47401 20.4079 9.63133 20.6455 9.71937L20.7168 9.64906C21.0941 9.27173 21.0941 8.66017 20.7168 8.28284Z" fill="#191919"/>
<path d="M10.5 12C11.0523 12 11.5 12.4477 11.5 13C11.5 13.5523 11.0523 14 10.5 14H8C7.44772 14 7 13.5523 7 13C7 12.4477 7.44772 12 8 12H10.5Z" fill="#191919"/>
<path d="M14.5 8C15.0523 8 15.5 8.44772 15.5 9C15.5 9.55228 15.0523 10 14.5 10H8C7.44772 10 7 9.55228 7 9C7 8.44772 7.44772 8 8 8H14.5Z" fill="#191919"/>
<path d="M9.5 16C10.0523 16 10.5 16.4477 10.5 17C10.5 17.5523 10.0523 18 9.5 18H8C7.44772 18 7 17.5523 7 17C7 16.4477 7.44772 16 8 16H9.5Z" fill="#191919"/>
<path d="M2 14V10C2 8.14265 1.99779 6.64892 2.15528 5.47754C2.31664 4.27745 2.66231 3.26738 3.46485 2.46485C4.26738 1.66231 5.27745 1.31664 6.47754 1.15528C7.64892 0.997788 9.14265 1 11 1H13C14.8573 1 16.3511 0.997788 17.5225 1.15528C18.7226 1.31664 19.7326 1.66232 20.5352 2.46485C20.9257 2.85537 20.9257 3.48838 20.5352 3.87891C20.1446 4.26913 19.5115 4.26933 19.1211 3.87891C18.7521 3.5099 18.2342 3.26924 17.2559 3.1377C16.2487 3.00229 14.9139 3 13 3H11C9.08611 3 7.75128 3.00229 6.74414 3.1377C5.7658 3.26924 5.24792 3.5099 4.87891 3.87891C4.5099 4.24792 4.26924 4.7658 4.1377 5.74414C4.00229 6.75128 4 8.08611 4 10V14C4 15.9139 4.00229 17.2487 4.1377 18.2559C4.26924 19.2342 4.5099 19.7521 4.87891 20.1211C5.24792 20.4901 5.7658 20.7308 6.74414 20.8623C7.75128 20.9977 9.08611 21 11 21H13C14.9139 21 16.2487 20.9977 17.2559 20.8623C18.2342 20.7308 18.7521 20.4901 19.1211 20.1211C19.7347 19.5075 19.9543 18.5344 19.9912 15.9854C19.9993 15.4332 20.4537 14.992 21.0059 15C21.5581 15.008 21.9992 15.4625 21.9912 16.0147C21.9563 18.4247 21.8077 20.2626 20.5352 21.5352C19.7326 22.3377 18.7226 22.6834 17.5225 22.8447C16.3511 23.0022 14.8574 23 13 23H11C9.14265 23 7.64892 23.0022 6.47754 22.8447C5.27745 22.6834 4.26738 22.3377 3.46485 21.5352C2.66232 20.7326 2.31664 19.7226 2.15528 18.5225C1.99779 17.3511 2 15.8574 2 14Z" fill="#191919"/>
</svg>
