<svg width="24" height="24" viewBox="0 0 24 24" fill="none" xmlns="http://www.w3.org/2000/svg">
<path d="M20 10C20 8.08611 19.9977 6.75128 19.8623 5.74414C19.7308 4.7658 19.4901 4.24792 19.1211 3.87891C18.7521 3.5099 18.2342 3.26924 17.2559 3.1377C16.2487 3.00229 14.9139 3 13 3H11C9.08611 3 7.75128 3.00229 6.74414 3.1377C5.7658 3.26924 5.24792 3.5099 4.87891 3.87891C4.5099 4.24792 4.26924 4.7658 4.1377 5.74414C4.00229 6.75128 4 8.08611 4 10V14C4 15.9139 4.00229 17.2487 4.1377 18.2559C4.26924 19.2342 4.5099 19.7521 4.87891 20.1211C5.24792 20.4901 5.7658 20.7308 6.74414 20.8623C7.75128 20.9977 9.08611 21 11 21H13C14.9139 21 16.2487 20.9977 17.2559 20.8623C18.2342 20.7308 18.7521 20.4901 19.1211 20.1211C19.4901 19.7521 19.7308 19.2342 19.8623 18.2559C19.9977 17.2487 20 15.9139 20 14V10ZM22 14C22 15.8574 22.0022 17.3511 21.8447 18.5225C21.6834 19.7226 21.3377 20.7326 20.5352 21.5352C19.7326 22.3377 18.7226 22.6834 17.5225 22.8447C16.3511 23.0022 14.8574 23 13 23H11C9.14265 23 7.64892 23.0022 6.47754 22.8447C5.27745 22.6834 4.26738 22.3377 3.46485 21.5352C2.66232 20.7326 2.31664 19.7226 2.15528 18.5225C1.99779 17.3511 2 15.8574 2 14V10C2 8.14265 1.99779 6.64892 2.15528 5.47754C2.31664 4.27745 2.66231 3.26738 3.46485 2.46485C4.26738 1.66231 5.27745 1.31664 6.47754 1.15528C7.64892 0.997788 9.14265 1 11 1H13C14.8574 1 16.3511 0.997788 17.5225 1.15528C18.7226 1.31664 19.7326 1.66232 20.5352 2.46485C21.3377 3.26738 21.6834 4.27745 21.8447 5.47754C22.0022 6.64892 22 8.14265 22 10V14Z" fill="#191919"/>
<path d="M16 11C16.5523 11 17 11.4477 17 12C17 12.5523 16.5523 13 16 13H8C7.44772 13 7 12.5523 7 12C7 11.4477 7.44772 11 8 11H16Z" fill="#191919"/>
<path d="M16 7C16.5523 7 17 7.44772 17 8C17 8.55228 16.5523 9 16 9H8C7.44772 9 7 8.55228 7 8C7 7.44772 7.44772 7 8 7H16Z" fill="#191919"/>
<path d="M13 15C13.5523 15 14 15.4477 14 16C14 16.5523 13.5523 17 13 17H8C7.44772 17 7 16.5523 7 16C7 15.4477 7.44772 15 8 15H13Z" fill="#191919"/>
</svg>
