<svg width="24" height="24" viewBox="0 0 24 24" fill="none" xmlns="http://www.w3.org/2000/svg">
<path d="M11.6475 1.10159C12.3226 0.944179 13.0004 0.98514 13.75 1.11917C14.4873 1.25101 15.3813 1.49142 16.4922 1.78909C17.6029 2.08669 18.4968 2.32469 19.2012 2.57913C19.9173 2.83784 20.5243 3.14238 21.0303 3.61624C21.752 4.29225 22.2579 5.16684 22.4824 6.12991C22.6398 6.805 22.5989 7.48289 22.4648 8.23245C22.333 8.96977 22.0926 9.86372 21.7949 10.9746L21.2773 12.9063C20.9797 14.0171 20.7408 14.9108 20.4863 15.6153C20.2277 16.3313 19.924 16.9384 19.4502 17.4444C18.7742 18.1661 17.8995 18.6719 16.9365 18.8965C16.8048 18.9272 16.6716 18.9502 16.5371 18.9668C15.926 19.0422 15.2979 18.9732 14.6074 18.836C13.9203 18.6993 13.0959 18.4781 12.0918 18.209C10.9811 17.9114 10.0872 17.6734 9.38281 17.419C8.66668 17.1603 8.05965 16.8557 7.55371 16.3819C6.83194 15.7059 6.32612 14.8313 6.10156 13.8682C5.94415 13.1931 5.98511 12.5152 6.11914 11.7657C6.25099 11.0283 6.49139 10.1344 6.78906 9.02346L7.30664 7.09182C7.39337 6.76815 7.47458 6.46423 7.55176 6.18167C7.9912 4.57287 8.34714 3.39374 9.13379 2.55374C9.80979 1.83198 10.6844 1.32615 11.6475 1.10159ZM13.3984 3.08792C12.7766 2.97671 12.4022 2.97973 12.1016 3.04983C11.5238 3.18459 10.9993 3.48792 10.5938 3.92093C10.2078 4.33306 9.95106 4.98616 9.48047 6.70901C9.40481 6.98601 9.32531 7.28462 9.23828 7.6094L8.7207 9.54104C8.4142 10.6849 8.20131 11.4831 8.08789 12.1172C7.97669 12.7391 7.9797 13.1134 8.04981 13.4141C8.18456 13.9919 8.48788 14.5163 8.9209 14.9219C9.14622 15.1329 9.46835 15.3225 10.0625 15.5371C10.6683 15.756 11.4655 15.9709 12.6094 16.2774C13.6378 16.5529 14.389 16.7541 14.9971 16.875C15.6014 16.9952 15.9893 17.0199 16.293 16.9824C16.3587 16.9743 16.4217 16.9624 16.4824 16.9483C17.0601 16.8135 17.5847 16.5101 17.9902 16.0772C18.2012 15.8519 18.3909 15.5296 18.6055 14.9356C18.8243 14.3297 19.0392 13.5326 19.3457 12.3887L19.8633 10.4571C20.1698 9.31314 20.3827 8.51498 20.4961 7.88089C20.6073 7.259 20.6043 6.88466 20.5342 6.58401C20.3994 6.00624 20.0961 5.48177 19.6631 5.0762C19.4378 4.86516 19.1157 4.6756 18.5215 4.46096C17.9157 4.24212 17.1185 4.02725 15.9746 3.72073C14.8307 3.41421 14.0325 3.20133 13.3984 3.08792Z" fill="#191919"/>
<path d="M8.7666 7.41309C8.41916 7.50292 8.03712 7.60511 7.60938 7.71973C6.4655 8.02623 5.66834 8.24114 5.0625 8.45996C4.46865 8.67449 4.14621 8.86429 3.9209 9.0752C3.48784 9.4808 3.18454 10.0061 3.04981 10.584C2.97974 10.8846 2.97675 11.2582 3.08789 11.8799C3.20129 12.514 3.41415 13.312 3.72071 14.4561L4.23828 16.3877C4.54486 17.5319 4.75964 18.3296 4.97852 18.9355C5.19314 19.5297 5.38273 19.8518 5.59375 20.0771C5.99931 20.5101 6.52383 20.8135 7.10157 20.9482C7.40222 21.0183 7.77656 21.0214 8.39844 20.9102C9.03255 20.7967 9.83064 20.5839 10.9746 20.2773C12.1185 19.9708 12.9157 19.7559 13.5215 19.5371C14.1156 19.3225 14.4378 19.1329 14.6631 18.9219C15.0327 18.5757 15.3085 18.1428 15.4648 17.6641L17.3652 18.2842C17.1046 19.0823 16.6464 19.8047 16.0303 20.3818C15.5244 20.8556 14.9172 21.1593 14.2012 21.418C13.4968 21.6724 12.603 21.9114 11.4922 22.209C10.3813 22.5067 9.48733 22.7471 8.75 22.8789C8.00046 23.0129 7.32254 23.0529 6.64746 22.8955C5.68447 22.6709 4.80975 22.1661 4.13379 21.4443C3.65991 20.9384 3.3554 20.3314 3.09668 19.6152C2.84224 18.9109 2.60425 18.0169 2.30664 16.9062L1.78907 14.9736C1.49145 13.8629 1.25099 12.9697 1.11914 12.2324C0.985122 11.4829 0.944227 10.8049 1.10157 10.1299C1.32612 9.16681 1.83195 8.29124 2.55371 7.61523C3.05959 7.1416 3.66685 6.83774 4.38282 6.5791C5.08724 6.32465 5.98101 6.08572 7.0918 5.78809C7.51719 5.6741 7.90811 5.56998 8.26563 5.47754L8.7666 7.41309Z" fill="#191919"/>
<path d="M16.8653 10.3283C17.3988 10.4712 17.7154 11.0196 17.5724 11.5531C17.4295 12.0865 16.8811 12.4031 16.3477 12.2602L11.518 10.9661C10.9846 10.8231 10.668 10.2748 10.8109 9.74132C10.9539 9.20785 11.5022 8.89127 12.0357 9.03421L16.8653 10.3283Z" fill="#191919"/>
<path d="M14.1566 12.7081C14.6901 12.8511 15.0066 13.3994 14.8637 13.9329C14.7208 14.4663 14.1724 14.7829 13.639 14.64L10.7412 13.8635C10.2077 13.7206 9.89113 13.1722 10.0341 12.6388C10.177 12.1053 10.7254 11.7887 11.2588 11.9317L14.1566 12.7081Z" fill="#191919"/>
</svg>
