<svg width="24" height="24" viewBox="0 0 24 24" fill="none" xmlns="http://www.w3.org/2000/svg">
<path d="M1 16V15C1 13.6142 0.998272 12.4742 1.11914 11.5752C1.24389 10.6474 1.51577 9.828 2.17188 9.17189C2.7437 8.60012 3.44163 8.31794 4.23145 8.17287C4.99259 8.0331 5.91489 8.00798 6.99414 8.00197C7.54632 7.9989 7.99677 8.44397 8 8.99611C8.00308 9.54829 7.558 9.99874 7.00586 10.002C5.9105 10.0081 5.15628 10.0372 4.59277 10.1406C4.05793 10.2389 3.78247 10.3895 3.58594 10.586C3.36337 10.8085 3.19551 11.1358 3.10059 11.8418C3.00182 12.5766 3 13.5578 3 15V16C3 17.4425 3.00179 18.4244 3.10059 19.1592C3.19551 19.8649 3.36346 20.1915 3.58594 20.4141C3.80851 20.6366 4.13574 20.8045 4.8418 20.8994C5.57658 20.9982 6.55776 21 8 21H16C17.4422 21 18.4234 20.9982 19.1582 20.8994C19.8643 20.8045 20.1915 20.6366 20.4141 20.4141C20.6365 20.1915 20.8045 19.8649 20.8994 19.1592C20.9982 18.4244 21 17.4425 21 16V15C21 13.5578 20.9982 12.5766 20.8994 11.8418C20.8045 11.1358 20.6366 10.8085 20.4141 10.586C20.2175 10.3895 19.9421 10.2389 19.4072 10.1406C18.8437 10.0372 18.0895 10.0081 16.9941 10.002C16.442 9.99874 15.9969 9.54829 16 8.99611C16.0032 8.44397 16.4537 7.9989 17.0059 8.00197C18.0851 8.00798 19.0074 8.0331 19.7686 8.17287C20.5584 8.31794 21.2563 8.60012 21.8281 9.17189C22.4842 9.828 22.7561 10.6474 22.8809 11.5752C23.0017 12.4742 23 13.6142 23 15V16C23 17.3857 23.0017 18.5258 22.8809 19.4248C22.7561 20.3527 22.4842 21.173 21.8281 21.8291C21.1721 22.485 20.3525 22.7571 19.4248 22.8819C18.7505 22.9725 17.9406 22.994 16.9932 22.999L8 23C6.61421 23 5.47421 23.0027 4.5752 22.8819C3.64755 22.7571 2.82792 22.485 2.17188 21.8291C1.51577 21.173 1.24389 20.3527 1.11914 19.4248C0.998322 18.5258 1 17.3857 1 16Z" fill="#191919"/>
<path d="M13 2C13 1.44772 12.5523 1 12 1C11.4477 1 11 1.44772 11 2V12.2969L9.75878 10.8496C9.39936 10.4303 8.76893 10.3818 8.3496 10.7412C7.93028 11.1006 7.88178 11.7311 8.2412 12.1504L11.2412 15.6504C11.4312 15.872 11.7081 16 12 16C12.2919 16 12.5688 15.872 12.7588 15.6504L15.7588 12.1504C16.1182 11.7311 16.0697 11.1006 15.6504 10.7412C15.2311 10.3818 14.6006 10.4303 14.2412 10.8496L13 12.2969V2Z" fill="#191919"/>
</svg>
