<svg width="24" height="24" viewBox="0 0 24 24" fill="none" xmlns="http://www.w3.org/2000/svg">
<path d="M11 16.5V14.9541C10.2253 14.8849 9.50012 14.7379 8.82325 14.5303L7.8379 16.0449C7.53673 16.5078 6.91798 16.6389 6.45508 16.3379C5.99223 16.0367 5.86107 15.418 6.16212 14.9551L6.94532 13.75C6.24506 13.3794 5.61391 12.9495 5.04883 12.4932L4.20704 13.3359C3.81652 13.7264 3.18349 13.7264 2.79298 13.3359C2.40246 12.9454 2.40249 12.3124 2.79298 11.9219L3.59083 11.123C2.74609 10.2035 2.12762 9.29235 1.71876 8.60547C1.50957 8.25403 1.3534 7.95873 1.24805 7.74805C1.19541 7.64276 1.1557 7.55815 1.12794 7.49805C1.11409 7.46807 1.1025 7.44422 1.09473 7.42676C1.0909 7.41813 1.0883 7.41068 1.08594 7.40527C1.08481 7.40268 1.0838 7.40026 1.08301 7.39844C1.08261 7.3975 1.08235 7.39623 1.08204 7.39551L1.08106 7.39453C1.08187 7.39369 1.11152 7.38078 2.00001 7L1.08106 7.39355C0.863679 6.88598 1.0989 6.29858 1.60645 6.08105C2.08216 5.87732 2.62826 6.07071 2.87403 6.51367L2.91895 6.60547C2.91958 6.6069 2.92114 6.6094 2.92286 6.61328C2.92686 6.62229 2.93358 6.63799 2.94337 6.65918C2.96296 6.7016 2.99412 6.76753 3.03712 6.85351C3.12316 7.02561 3.25611 7.27728 3.43751 7.58203C3.80146 8.19347 4.35421 9.00813 5.10743 9.81933C6.61474 11.4426 8.86815 13 12 13C13.2088 13 14.2782 12.7694 15.2207 12.3984C16.4467 11.9159 17.4744 11.1888 18.3154 10.3994C19.265 9.5081 19.9624 8.54958 20.4229 7.81055C20.6522 7.44253 20.8205 7.13301 20.9297 6.91894C20.9841 6.81221 21.0237 6.7296 21.0488 6.67578C21.0614 6.64888 21.0709 6.62898 21.0762 6.61719L21.0811 6.60547C21.2988 6.09832 21.8862 5.86376 22.3936 6.08105C22.9011 6.29858 23.1363 6.88598 22.919 7.39355L22 7L22.919 7.39453L22.918 7.39648L22.917 7.39941C22.9161 7.40155 22.9144 7.40415 22.9131 7.40723C22.9103 7.41365 22.907 7.42226 22.9023 7.43262C22.8929 7.45388 22.8795 7.48372 22.8623 7.52051C22.8279 7.59436 22.7778 7.69893 22.7119 7.82812C22.5803 8.08627 22.3844 8.44663 22.1211 8.86914C21.7185 9.51528 21.1506 10.315 20.4082 11.123L21.207 11.9219C21.5975 12.3124 21.5975 12.9454 21.207 13.3359C20.8165 13.7264 20.1835 13.7264 19.793 13.3359L18.9512 12.4941C18.3869 12.9499 17.756 13.3801 17.0547 13.751L17.8379 14.9551C18.1389 15.418 18.0078 16.0367 17.5449 16.3379C17.082 16.6389 16.4633 16.5078 16.1621 16.0449L15.1748 14.5283C14.4961 14.7363 13.7717 14.885 13 14.9541V16.5C13 17.0523 12.5523 17.5 12 17.5C11.4477 17.5 11 17.0523 11 16.5Z" fill="#191919"/>
</svg>
