<svg width="24" height="24" viewBox="0 0 24 24" fill="none" xmlns="http://www.w3.org/2000/svg">
<path d="M21 12C21 11.2719 20.9063 10.872 20.7666 10.5557C20.6121 10.206 20.3757 9.89009 19.9326 9.31445C18.3258 7.22687 15.7389 5 12 5C8.26111 5 5.67425 7.22687 4.06738 9.31445C3.6243 9.89009 3.38787 10.206 3.2334 10.5557C3.09369 10.872 3 11.2719 3 12C3 12.7281 3.09369 13.128 3.2334 13.4443C3.38787 13.794 3.6243 14.1099 4.06738 14.6855C5.67425 16.7731 8.26111 19 12 19C15.7389 19 18.3258 16.7731 19.9326 14.6855C20.3757 14.1099 20.6121 13.794 20.7666 13.4443C20.9063 13.128 21 12.7281 21 12ZM23 12C23 12.9112 22.8809 13.6073 22.5957 14.2529C22.3253 14.865 21.9242 15.377 21.5176 15.9053C19.7303 18.2272 16.6249 21 12 21C7.37512 21 4.2697 18.2272 2.48242 15.9053C2.07576 15.377 1.67474 14.865 1.4043 14.2529C1.11907 13.6073 1 12.9112 1 12C1 11.0888 1.11907 10.3927 1.4043 9.74707C1.67474 9.13504 2.07576 8.62304 2.48242 8.09473C4.2697 5.77276 7.37512 3 12 3C16.6249 3 19.7303 5.77276 21.5176 8.09473C21.9242 8.62305 22.3253 9.13504 22.5957 9.74707C22.8809 10.3927 23 11.0888 23 12Z" fill="#191919"/>
<path d="M14 12C14 10.8954 13.1046 10 12 10C10.8954 10 10 10.8954 10 12C10 13.1046 10.8954 14 12 14C13.1046 14 14 13.1046 14 12ZM16 12C16 14.2091 14.2091 16 12 16C9.79086 16 8 14.2091 8 12C8 9.79086 9.79086 8 12 8C14.2091 8 16 9.79086 16 12Z" fill="#191919"/>
</svg>
