<svg width="24" height="24" viewBox="0 0 24 24" fill="none" xmlns="http://www.w3.org/2000/svg">
<path d="M2 13.1114C2 9.93629 3.68046 7.79994 5.25391 6.59964C5.97319 6.05107 6.8425 6.0407 7.52832 6.41507C8.18767 6.77506 8.64251 7.46361 8.72461 8.2637L8.81055 9.10159C8.83711 9.3609 8.97121 9.56294 9.08301 9.64749C9.10707 9.66565 9.12397 9.67481 9.13379 9.67874C9.13955 9.67639 9.14964 9.67248 9.16406 9.66311C9.75407 9.27969 10.2246 8.57214 10.5488 7.69925C10.8688 6.83754 11 5.93701 11 5.33304V5.00979C11 3.95105 11.539 3.03439 12.3516 2.54593C13.1846 2.04526 14.2699 2.02323 15.1885 2.68753C17.882 4.63555 21 8.13184 21 13.1114C20.9999 17.0011 19.3232 19.5239 17.1768 21.0391C15.0823 22.5176 12.6008 23 10.9336 23C9.42649 23 7.20848 22.503 5.34668 21.001C3.44221 19.4646 2.00005 16.9474 2 13.1114ZM13 5.33304C13 6.17076 12.8279 7.30738 12.4238 8.39554C12.0238 9.47271 11.3484 10.6286 10.2539 11.3399C9.41841 11.8828 8.51195 11.7232 7.87598 11.2422C7.2824 10.7931 6.89923 10.0666 6.82129 9.30569L6.73535 8.4678C6.71753 8.29415 6.62638 8.20056 6.57031 8.16995C6.54463 8.15594 6.53109 8.15714 6.5293 8.15726C6.52753 8.15738 6.52325 8.1573 6.51562 8.16018C6.50758 8.16325 6.4909 8.17113 6.4668 8.18948C5.24327 9.12285 4 10.7233 4 13.1114C4.00005 16.3862 5.20154 18.3141 6.60254 19.4444C8.04629 20.6091 9.79625 21 10.9336 21C12.2886 21 14.3404 20.5934 16.0234 19.4053C17.6546 18.2539 18.9999 16.3324 19 13.1114C19 9.03734 16.4491 6.06685 14.0166 4.30765C13.7767 4.13419 13.5602 4.15353 13.3818 4.26077C13.183 4.38041 13 4.63894 13 5.00979V5.33304Z" fill="#191919"/>
<path d="M14 18.4442C14 17.9429 13.8126 17.5581 13.5605 17.2694C13.3688 17.6573 13.0603 18.0039 12.6533 18.1962C12.3709 18.3295 11.9995 18.4039 11.6055 18.2879C11.2036 18.1696 10.9141 17.8934 10.7314 17.5819C10.4802 17.1533 10.3832 16.6752 10.3389 16.3046C10.3183 16.1327 10.3077 15.9643 10.3018 15.8104C9.57981 16.4564 9.00005 17.3447 9 18.4442C9 19.5195 9.44545 20.1069 9.96582 20.4637C10.5392 20.8569 11.2617 20.9999 11.7334 20.9999C12.0997 20.9998 12.6864 20.8715 13.1582 20.5018C13.5848 20.1675 14 19.5748 14 18.4442ZM16 18.4442C16 20.1581 15.3261 21.3437 14.3916 22.076C13.5024 22.7728 12.456 22.9999 11.7334 22.9999C10.9607 22.9999 9.81613 22.7866 8.83398 22.1131C7.79904 21.4033 7 20.2131 7 18.4442C7.00005 16.2274 8.39111 14.6921 9.55078 13.8495L9.66504 13.7733C10.2394 13.418 10.9097 13.4481 11.4277 13.7616C11.9583 14.0828 12.2938 14.6733 12.2939 15.3329C12.2939 15.3924 12.2953 15.4533 12.2959 15.5145C12.4445 15.377 12.6146 15.2658 12.7979 15.1864C13.2866 14.9746 13.9155 14.9765 14.4414 15.3719C15.1839 15.9303 16 16.9418 16 18.4442Z" fill="#191919"/>
</svg>
