<svg width="24" height="24" viewBox="0 0 24 24" fill="none" xmlns="http://www.w3.org/2000/svg">
<g clip-path="url(#clip0_3277_54073)">
<path d="M15 6C15 4.34315 13.6569 3 12 3C10.3431 3 9 4.34315 9 6C9 7.65685 10.3431 9 12 9C13.6569 9 15 7.65685 15 6ZM17 6C17 8.76142 14.7614 11 12 11C9.23858 11 7 8.76142 7 6C7 3.23858 9.23858 1 12 1C14.7614 1 17 3.23858 17 6Z" fill="#191919"/>
<path d="M20 6.5C20 5.83454 19.283 5 18 5C17.4477 5 17 4.55228 17 4C17 3.44772 17.4477 3 18 3C20.0307 3 22 4.40403 22 6.5C22 8.59597 20.0307 10 18 10C17.4477 10 17 9.55228 17 9C17 8.44772 17.4477 8 18 8C19.283 8 20 7.16546 20 6.5Z" fill="#191919"/>
<path d="M4 6.5C4 5.83454 4.71697 5 6 5C6.55228 5 7 4.55228 7 4C7 3.44772 6.55228 3 6 3C3.96932 3 2 4.40403 2 6.5C2 8.59597 3.96932 10 6 10C6.55228 10 7 9.55228 7 9C7 8.44772 6.55228 8 6 8C4.71697 8 4 7.16546 4 6.5Z" fill="#191919"/>
<path d="M17 17C17 16.3338 16.5945 15.6086 15.6875 15.0039C14.7875 14.404 13.4869 14 12 14C10.5131 14 9.21251 14.404 8.3125 15.0039C7.4055 15.6086 7 16.3338 7 17C7 17.6662 7.4055 18.3914 8.3125 18.9961C9.21251 19.596 10.5131 20 12 20C13.4869 20 14.7875 19.596 15.6875 18.9961C16.5945 18.3914 17 17.6662 17 17ZM19 17C19 18.543 18.0614 19.8171 16.7969 20.6602C15.5253 21.5078 13.8267 22 12 22C10.1733 22 8.47467 21.5078 7.20312 20.6602C5.93856 19.8171 5 18.543 5 17C5 15.457 5.93856 14.1829 7.20312 13.3398C8.47467 12.4922 10.1733 12 12 12C13.8267 12 15.5253 12.4922 16.7969 13.3398C18.0614 14.1829 19 15.457 19 17Z" fill="#191919"/>
<path d="M22 16.4999C22 16.3217 21.9055 16.052 21.5244 15.7402C21.1441 15.429 20.5501 15.144 19.7861 14.9765C19.2468 14.8582 18.9053 14.3254 19.0235 13.7861C19.1417 13.2467 19.6745 12.9052 20.2139 13.0234C21.204 13.2405 22.1099 13.635 22.791 14.1923C23.4714 14.749 24 15.5371 24 16.4999C24 17.4628 23.4714 18.2508 22.791 18.8075C22.1099 19.3648 21.204 19.7594 20.2139 19.9765C19.6745 20.0946 19.1417 19.7532 19.0235 19.2138C18.9053 18.6744 19.2468 18.1416 19.7861 18.0234C20.5501 17.8558 21.1441 17.5708 21.5244 17.2597C21.9055 16.9479 22 16.6781 22 16.4999Z" fill="#191919"/>
<path d="M1.99999 16.4999C1.99999 16.3217 2.09449 16.052 2.47557 15.7402C2.85586 15.429 3.44995 15.144 4.21385 14.9765C4.75323 14.8582 5.09467 14.3254 4.97655 13.7861C4.85827 13.2467 4.32549 12.9052 3.78612 13.0234C2.79603 13.2405 1.89006 13.635 1.20897 14.1923C0.528617 14.749 -1.43051e-05 15.5371 -1.43051e-05 16.4999C-1.43051e-05 17.4628 0.528617 18.2508 1.20897 18.8075C1.89006 19.3648 2.79603 19.7594 3.78612 19.9765C4.32549 20.0946 4.85827 19.7532 4.97655 19.2138C5.09467 18.6744 4.75323 18.1416 4.21385 18.0234C3.44995 17.8558 2.85586 17.5708 2.47557 17.2597C2.09449 16.9479 1.99999 16.6781 1.99999 16.4999Z" fill="#191919"/>
</g>
<defs>
<clipPath id="clip0_3277_54073">
<rect width="24" height="24" fill="white"/>
</clipPath>
</defs>
</svg>
