<svg width="24" height="24" viewBox="0 0 24 24" fill="none" xmlns="http://www.w3.org/2000/svg">
<path d="M4.28779 17.6426C4.76487 17.3644 5.37775 17.5258 5.65595 18.0029C6.45345 19.3705 7.6744 20.41 9.19111 21.0869C9.69537 21.312 9.9219 21.9029 9.69697 22.4072C9.47194 22.9114 8.8809 23.1379 8.37666 22.9131C6.52304 22.0858 4.95973 20.781 3.92744 19.0107C3.64927 18.5337 3.81072 17.9208 4.28779 17.6426Z" fill="#191919"/>
<path d="M14.5518 1.22467C16.5769 0.648467 18.6884 1.19835 20.1563 2.69733C20.5425 3.09183 20.5359 3.72497 20.1416 4.11139C19.747 4.49777 19.1139 4.49131 18.7275 4.09675C17.7785 3.12751 16.4271 2.76953 15.0986 3.14753C14.5676 3.29855 14.0145 2.99101 13.8633 2.46003C13.7121 1.92883 14.0206 1.37582 14.5518 1.22467Z" fill="#191919"/>
<path d="M8.85059 1.56099C10.1316 0.829142 11.9027 1.05631 12.7022 2.4272L13.9561 4.57856C14.165 4.35577 14.4069 4.16096 14.6758 4.00728C15.9568 3.27527 17.7279 3.50155 18.5273 4.87251L21.0527 9.20356C23.2519 12.975 21.4713 17.8255 17.4541 20.1215C13.4398 22.4158 8.32133 21.5164 6.12696 17.7534L2.33887 11.2563C1.53476 9.87684 2.23068 8.23229 3.51465 7.49849C3.77833 7.3478 4.06301 7.23917 4.35547 7.17134L3.53321 5.76216C2.72875 4.38265 3.42494 2.73726 4.70899 2.00337C5.7576 1.40408 7.13443 1.44745 8.03809 2.23481C8.26643 1.96864 8.54118 1.73781 8.85059 1.56099ZM10.9746 3.43403C10.8441 3.21039 10.3839 2.98901 9.84278 3.29829C9.3052 3.60561 9.27721 4.0966 9.40235 4.31196L11.9287 8.64399C12.2065 9.12096 12.0452 9.73303 11.5684 10.0112C11.0913 10.2894 10.4784 10.1279 10.2002 9.65083L6.83301 3.87642C6.70259 3.65276 6.24237 3.43039 5.70117 3.7397C5.16324 4.04724 5.13628 4.53923 5.26172 4.75435L9.04981 11.2514C9.3278 11.7285 9.16646 12.3404 8.68946 12.6186C8.21239 12.8967 7.60045 12.7353 7.32227 12.2583L5.63867 9.37153L5.57422 9.28852C5.3914 9.10044 4.98036 8.96419 4.50684 9.23481C3.96875 9.54235 3.94095 10.0343 4.06641 10.2495L7.85547 16.7456C9.38071 19.3611 13.1865 20.2563 16.4609 18.3852C19.7322 16.5157 20.8451 12.8185 19.3252 10.2114L16.7988 5.87935C16.668 5.65588 16.2087 5.43458 15.668 5.7436C15.1299 6.05114 15.1021 6.54311 15.2275 6.75825L16.9111 9.64497C17.0454 9.87529 17.0826 10.1501 17.0137 10.4077C16.9447 10.6652 16.7754 10.8847 16.5439 11.017C15.0947 11.8453 14.7055 13.4059 15.2959 14.4184C15.574 14.8955 15.4126 15.5074 14.9355 15.7856C14.4586 16.0637 13.8467 15.903 13.5684 15.4262C12.4709 13.5442 13.113 11.2613 14.7256 9.86665L10.9746 3.43403Z" fill="#191919"/>
</svg>
