<svg width="24" height="24" viewBox="0 0 24 24" fill="none" xmlns="http://www.w3.org/2000/svg">
<path d="M21 9.13765C21 7.08032 19.8376 5.36722 18.2715 4.65133C16.9493 4.04709 15.2003 4.09652 13.4414 5.5273L14.707 6.79293C15.0976 7.18339 15.0975 7.81641 14.707 8.20699C14.3166 8.59753 13.6835 8.59743 13.293 8.20699L11.293 6.20797C11.2884 6.20345 11.2837 6.1989 11.2793 6.1943C9.2855 4.12288 7.23156 3.96445 5.72852 4.65133C4.16237 5.36722 3 7.08032 3 9.13765C3.0001 11.2569 3.86386 12.8943 5.125 14.3144C6.42047 15.7731 8.05061 16.9195 9.58105 18.1259C10.1093 18.5423 10.5653 18.8953 11 19.1494C11.435 19.4035 11.7539 19.5 12 19.5C12.2461 19.5 12.565 19.4035 13 19.1494C13.4347 18.8953 13.8907 18.5423 14.4189 18.1259C15.9494 16.9195 17.5795 15.7731 18.875 14.3144C20.1361 12.8943 20.9999 11.2569 21 9.13765ZM23 9.13765C22.9999 11.8809 21.854 13.9705 20.3701 15.6416C18.9203 17.2741 17.069 18.5833 15.6572 19.6962C15.1474 20.0982 14.5844 20.5401 14.0098 20.8759C13.4353 21.2116 12.7539 21.5 12 21.5C11.2461 21.5 10.5647 21.2116 9.99023 20.8759C9.41558 20.5401 8.8526 20.0982 8.34277 19.6962C6.93096 18.5833 5.07968 17.2741 3.62988 15.6416C2.14596 13.9705 1.0001 11.8809 1 9.13765C1 6.3322 2.58778 3.88846 4.89648 2.83297C7.04436 1.85117 9.66377 2.13096 12 4.12594C14.3362 2.13096 16.9556 1.85117 19.1035 2.83297C21.4122 3.88846 23 6.3322 23 9.13765Z" fill="#191919"/>
</svg>
