<svg width="24" height="24" viewBox="0 0 24 24" fill="none" xmlns="http://www.w3.org/2000/svg">
<path d="M11.9999 1.00018C12.7743 1.00018 13.4734 1.21379 14.2167 1.56073C14.9394 1.89808 15.7724 2.39603 16.7997 3.008L18.1845 3.83319C19.316 4.50724 20.2337 5.05194 20.9296 5.57538C21.6446 6.11333 22.2018 6.6824 22.5663 7.44257C22.931 8.2033 23.0254 8.99295 22.995 9.88495C22.9654 10.7522 22.8125 11.8041 22.6259 13.1008L22.3466 15.0383C22.1066 16.7058 21.9154 18.0501 21.6259 19.0988C21.3286 20.1754 20.898 21.0621 20.1034 21.7463C19.3097 22.4297 18.3672 22.7269 17.2548 22.8664C16.1697 23.0025 14.8036 23.0002 13.1063 23.0002H10.8934C9.19622 23.0002 7.83007 23.0025 6.74501 22.8664C5.63256 22.7269 4.69009 22.4297 3.89638 21.7463C3.10183 21.0621 2.67116 20.1754 2.37392 19.0988C2.08439 18.0501 1.89315 16.7058 1.65321 15.0383L1.37392 13.1008C1.18733 11.8041 1.0344 10.7522 1.00478 9.88495C0.974339 8.99295 1.06878 8.2033 1.43349 7.44257C1.79797 6.6824 2.35516 6.11333 3.07021 5.57538C3.76604 5.05194 4.68379 4.50724 5.81532 3.83319L7.20009 3.008C8.2274 2.39603 9.0604 1.89808 9.7831 1.56073C10.5264 1.21379 11.2255 1.00018 11.9999 1.00018ZM11.9999 3.00018C11.62 3.00018 11.2195 3.09798 10.6298 3.37323C10.0194 3.65813 9.28518 4.09335 8.22353 4.72577L6.83876 5.55096C5.66984 6.24728 4.86194 6.73046 4.27235 7.17401C3.70198 7.60312 3.41318 7.94072 3.2372 8.3078C3.06151 8.67436 2.97963 9.10837 3.0038 9.81659C3.02883 10.5496 3.1606 11.4756 3.35341 12.8156L3.63271 14.7531C3.88013 16.4727 4.05377 17.6687 4.30165 18.5666C4.54185 19.4366 4.82064 19.903 5.20106 20.2307C5.58239 20.559 6.0895 20.7676 6.99403 20.881C7.92587 20.9979 9.14449 21.0002 10.8934 21.0002H13.1063C14.8553 21.0002 16.0739 20.9979 17.0058 20.881C17.9103 20.7676 18.4174 20.559 18.7987 20.2307C19.1791 19.903 19.4579 19.4366 19.6981 18.5666C19.946 17.6687 20.1197 16.4727 20.3671 14.7531L20.6464 12.8156C20.8392 11.4756 20.971 10.5496 20.996 9.81659C21.0202 9.10837 20.9383 8.67436 20.7626 8.3078C20.5866 7.94072 20.2978 7.60312 19.7274 7.17401C19.1378 6.73046 18.3299 6.24728 17.161 5.55096L15.7763 4.72577C14.7146 4.09335 13.9804 3.65813 13.37 3.37323C12.7802 3.09798 12.3798 3.00018 11.9999 3.00018Z" fill="#191919"/>
<path d="M15 17C15.5523 17 16 17.4477 16 18C16 18.5523 15.5523 19 15 19H9C8.44772 19 8 18.5523 8 18C8 17.4477 8.44772 17 9 17H15Z" fill="#191919"/>
</svg>
