<svg width="24" height="24" viewBox="0 0 24 24" fill="none" xmlns="http://www.w3.org/2000/svg">
<path d="M21 12C21 7.02944 16.9706 3 12 3C7.02944 3 3 7.02944 3 12C3 16.9706 7.02944 21 12 21C16.9706 21 21 16.9706 21 12ZM23 12C23 18.0751 18.0751 23 12 23C5.92487 23 1 18.0751 1 12C1 5.92487 5.92487 1 12 1C18.0751 1 23 5.92487 23 12Z" fill="#191919"/>
<path d="M11 11V17C11 17.5523 11.4477 18 12 18C12.5523 18 13 17.5523 13 17V11C13 10.4477 12.5523 10 12 10C11.4477 10 11 10.4477 11 11Z" fill="#191919"/>
<path d="M13 8C13 7.44772 12.5523 7 12 7C11.4477 7 11 7.44772 11 8C11 8.55228 11.4477 9 12 9C12.5523 9 13 8.55228 13 8Z" fill="#191919"/>
</svg>
