<svg width="24" height="24" viewBox="0 0 24 24" fill="none" xmlns="http://www.w3.org/2000/svg">
<path d="M20.707 12.207L12.707 20.207L11.2929 18.793L19.2929 10.793L20.707 12.207ZM19.207 8.70703L12.707 15.207L11.2929 13.793L17.7929 7.29297L19.207 8.70703ZM17.207 5.20703L12.707 9.70703L11.2929 8.29297L15.7929 3.79297L17.207 5.20703Z" fill="#191919"/>
<path d="M19 13.8564C19 17.4691 16.3803 20.4323 13 20.9268V3.21582C13.0128 3.22153 13.0264 3.22551 13.0391 3.23145C14.7866 4.04826 16.2821 5.63348 17.3467 7.59375C18.4092 9.55026 18.9999 11.8042 19 13.8564ZM5 13.8564C5.00005 11.8042 5.59083 9.55026 6.65332 7.59375C7.71793 5.63348 9.2134 4.04826 10.9609 3.23145C10.9736 3.22551 10.9872 3.22153 11 3.21582V20.9268C7.61973 20.4323 5 17.4691 5 13.8564ZM21 13.8564C21 11.4468 20.3144 8.86644 19.1045 6.63867C17.8966 4.41455 16.1227 2.46519 13.8867 1.41992C13.2887 1.1404 12.6444 1 12 1C11.3556 1 10.7113 1.1404 10.1133 1.41992C7.87727 2.46519 6.10342 4.41455 4.89551 6.63867C3.68563 8.86644 3.00005 11.4468 3 13.8564C3 18.8893 7.01277 23 12 23C16.9872 23 21 18.8893 21 13.8564Z" fill="#191919"/>
</svg>
