<svg width="24" height="24" viewBox="0 0 24 24" fill="none" xmlns="http://www.w3.org/2000/svg">
<path d="M19.9998 16V8C19.9998 6.55776 19.9979 5.57658 19.8992 4.8418C19.8043 4.13575 19.6364 3.80851 19.4138 3.58594C19.1913 3.36346 18.8647 3.19551 18.159 3.10059C17.4241 3.00179 16.4423 3 14.9998 3H13.9998C12.5575 3 11.5763 3.00182 10.8416 3.10059C10.1355 3.19551 9.8083 3.36337 9.58572 3.58594C9.38924 3.78247 9.23866 4.05793 9.14041 4.59277C9.03693 5.15628 9.00784 5.9105 9.00174 7.00586C8.99851 7.558 8.54806 8.00308 7.99588 8C7.44374 7.99677 6.99867 7.54632 7.00174 6.99414C7.00775 5.91489 7.03287 4.99259 7.17264 4.23145C7.31772 3.44163 7.59989 2.7437 8.17166 2.17188C8.82777 1.51577 9.64716 1.24389 10.575 1.11914C11.474 0.998272 12.6139 1 13.9998 1H14.9998C16.3855 1 17.5256 0.998322 18.4246 1.11914C19.3524 1.24389 20.1728 1.51577 20.8289 2.17188C21.4847 2.82792 21.7569 3.64755 21.8816 4.5752C22.0025 5.47421 21.9998 6.61421 21.9998 8V16C21.9998 17.3858 22.0025 18.5258 21.8816 19.4248C21.7569 20.3525 21.4847 21.1721 20.8289 21.8281C20.1728 22.4842 19.3524 22.7561 18.4246 22.8809C17.5256 23.0017 16.3855 23 14.9998 23H13.9998C12.6139 23 11.474 23.0017 10.575 22.8809C9.64716 22.7561 8.82777 22.4842 8.17166 21.8281C7.59989 21.2563 7.31772 20.5584 7.17264 19.7686C7.03287 19.0074 7.00775 18.0851 7.00174 17.0059C6.99867 16.4537 7.44374 16.0032 7.99588 16C8.54806 15.9969 8.99851 16.442 9.00174 16.9941C9.00784 18.0895 9.03693 18.8437 9.14041 19.4072C9.23866 19.9421 9.38924 20.2175 9.58572 20.4141C9.8083 20.6366 10.1355 20.8045 10.8416 20.8994C11.5763 20.9982 12.5575 21 13.9998 21H14.9998C16.4423 21 17.4241 20.9982 18.159 20.8994C18.8647 20.8045 19.1913 20.6365 19.4138 20.4141C19.6364 20.1915 19.8043 19.8643 19.8992 19.1582C19.9979 18.4234 19.9998 17.4422 19.9998 16Z" fill="#191919"/>
<path d="M2 14.5V9.5C2 8.34997 1.99808 7.38687 2.10059 6.62403C2.20703 5.83235 2.44251 5.10828 3.02539 4.52539C3.60828 3.94251 4.33235 3.70703 5.12403 3.60059C5.88687 3.49808 6.84997 3.5 8 3.5V5.5C6.79322 5.5 5.98831 5.50252 5.38965 5.58301C4.82009 5.65964 4.58876 5.79015 4.43946 5.93946C4.29015 6.08876 4.15964 6.32009 4.08301 6.88965C4.00252 7.48831 4 8.29322 4 9.5V14.5C4 15.7068 4.00252 16.5117 4.08301 17.1104C4.15964 17.6799 4.29015 17.9112 4.43946 18.0605C4.58876 18.2099 4.82009 18.3404 5.38965 18.417C5.98831 18.4975 6.79322 18.5 8 18.5V20.5C6.84997 20.5 5.88687 20.5019 5.12403 20.3994C4.33235 20.293 3.60828 20.0575 3.02539 19.4746C2.44251 18.8917 2.20703 18.1677 2.10059 17.376C1.99808 16.6131 2 15.65 2 14.5Z" fill="#191919"/>
<path d="M15 10.9999L8.41406 10.9999L8.70703 10.707C9.09756 10.3164 9.09756 9.68342 8.70703 9.29289C8.31651 8.90237 7.6835 8.90237 7.29297 9.29289L5.29297 11.2929L5.22461 11.3691C4.90426 11.7618 4.92686 12.3408 5.29297 12.707L7.29297 14.707C7.6835 15.0975 8.31651 15.0975 8.70703 14.707C9.09756 14.3164 9.09756 13.6834 8.70703 13.2929L8.41406 12.9999L15 12.9999C15.5523 12.9999 16 12.5522 16 11.9999C16 11.4476 15.5523 10.9999 15 10.9999Z" fill="#191919"/>
</svg>
