<svg width="24" height="24" viewBox="0 0 24 24" fill="none" xmlns="http://www.w3.org/2000/svg">
<path d="M7 16C7 15.4477 7.44772 15 8 15C8.55229 15 9 15.4477 9 16C9 17.4422 9.00185 18.4234 9.10059 19.1582C9.19551 19.8643 9.36337 20.1915 9.58594 20.4141C9.80851 20.6366 10.1357 20.8045 10.8418 20.8994C11.5766 20.9982 12.5578 21 14 21H15C16.4422 21 17.4234 20.9982 18.1582 20.8994C18.8643 20.8045 19.1915 20.6366 19.4141 20.4141C19.6366 20.1915 19.8045 19.8643 19.8994 19.1582C19.9982 18.4234 20 17.4422 20 16V8C20 6.55778 19.9982 5.57657 19.8994 4.8418C19.8045 4.13574 19.6366 3.80851 19.4141 3.58594C19.1915 3.36337 18.8643 3.19551 18.1582 3.10059C17.4234 3.00185 16.4422 3 15 3H14C12.5578 3 11.5766 3.00185 10.8418 3.10059C10.1357 3.19551 9.80851 3.36337 9.58594 3.58594C9.36337 3.80851 9.19551 4.13574 9.10059 4.8418C9.00185 5.57657 9 6.55778 9 8C9 8.55229 8.55229 9 8 9C7.44772 9 7 8.55229 7 8C7 6.61416 6.99829 5.47423 7.11914 4.5752C7.24389 3.64737 7.51577 2.82799 8.17188 2.17188C8.82799 1.51577 9.64737 1.24389 10.5752 1.11914C11.4742 0.998294 12.6142 1 14 1H15C16.3858 1 17.5258 0.998294 18.4248 1.11914C19.3526 1.24389 20.172 1.51577 20.8281 2.17188C21.4842 2.82799 21.7561 3.64737 21.8809 4.5752C22.0017 5.47423 22 6.61416 22 8V16C22 17.3858 22.0017 18.5258 21.8809 19.4248C21.7561 20.3526 21.4842 21.172 20.8281 21.8281C20.172 22.4842 19.3526 22.7561 18.4248 22.8809C17.5258 23.0017 16.3858 23 15 23H14C12.6142 23 11.4742 23.0017 10.5752 22.8809C9.64737 22.7561 8.82799 22.4842 8.17188 21.8281C7.51577 21.172 7.24389 20.3526 7.11914 19.4248C6.99829 18.5258 7 17.3858 7 16Z" fill="#191919"/>
<path d="M2 14.5V9.5C2 8.34997 1.99808 7.38687 2.10059 6.62403C2.20703 5.83235 2.44251 5.10828 3.02539 4.52539C3.60828 3.94251 4.33235 3.70703 5.12403 3.60059C5.88687 3.49808 6.84997 3.5 8 3.5V5.5C6.79322 5.5 5.98831 5.50252 5.38965 5.58301C4.82009 5.65964 4.58876 5.79015 4.43946 5.93946C4.29015 6.08876 4.15964 6.32009 4.08301 6.88965C4.00252 7.48831 4 8.29322 4 9.5V14.5C4 15.7068 4.00252 16.5117 4.08301 17.1104C4.15964 17.6799 4.29015 17.9112 4.43946 18.0605C4.58876 18.2099 4.82009 18.3404 5.38965 18.417C5.98831 18.4975 6.79322 18.5 8 18.5V20.5C6.84997 20.5 5.88687 20.5019 5.12403 20.3994C4.33235 20.293 3.60828 20.0575 3.02539 19.4746C2.44251 18.8917 2.20703 18.1677 2.10059 17.376C1.99808 16.6131 2 15.65 2 14.5Z" fill="#191919"/>
<path d="M6.00001 10.9999L12.5859 10.9999L11.793 10.207C11.4025 9.81643 11.4025 9.18342 11.793 8.79289C12.1835 8.40237 12.8165 8.40237 13.207 8.79289L15.707 11.2929L15.7754 11.3691C16.0957 11.7618 16.0732 12.3408 15.707 12.707L13.207 15.207C12.8165 15.5975 12.1835 15.5975 11.793 15.207C11.4024 14.8164 11.4024 14.1834 11.793 13.7929L12.5859 12.9999L6.00001 12.9999C5.44772 12.9999 5.00001 12.5522 5.00001 11.9999C5.00001 11.4476 5.44772 10.9999 6.00001 10.9999Z" fill="#191919"/>
</svg>
