<svg width="24" height="24" viewBox="0 0 24 24" fill="none" xmlns="http://www.w3.org/2000/svg">
<path d="M14.58 2.44453C16.5063 0.518587 19.6295 0.518395 21.5556 2.44453C23.4818 4.37066 23.4816 7.49386 21.5556 9.42011L12.1074 18.8684C11.5469 19.4289 11.2089 19.769 10.831 20.0637C10.3984 20.4011 9.93073 20.6909 9.43551 20.9269C9.00293 21.1331 8.54686 21.2827 7.79488 21.5334L3.71187 22.8947C2.97154 23.1414 2.15528 22.9485 1.60348 22.3967C1.05167 21.8449 0.858746 21.0286 1.10543 20.2883L2.46676 16.2053C2.71742 15.4533 2.86705 14.9972 3.0732 14.5646C3.30923 14.0694 3.59909 13.6017 3.93648 13.1691C4.23119 12.7913 4.5713 12.4533 5.1318 11.8928L14.58 2.44453ZM6.54586 13.3068C5.95233 13.9004 5.71522 14.1402 5.51363 14.3986C5.26561 14.7166 5.05239 15.061 4.87887 15.425C4.73781 15.721 4.62976 16.0405 4.36422 16.8371L3.46578 19.5314L4.46773 20.5334L7.16305 19.6359C7.95966 19.3704 8.27918 19.2623 8.57516 19.1213C8.9392 18.9478 9.28353 18.7345 9.60152 18.4865C9.85991 18.2849 10.0998 18.0478 10.6933 17.4543L17.9902 10.1555C17.2391 9.84489 16.3479 9.33444 15.5068 8.49336C14.6653 7.65183 14.1542 6.76032 13.8437 6.00898L6.54586 13.3068ZM20.1416 3.85859C18.9965 2.71351 17.1393 2.7137 15.9941 3.85859L15.4296 4.42304C15.4631 4.57011 15.5097 4.7506 15.58 4.95332C15.7875 5.55134 16.18 6.33841 16.9209 7.07929C17.6617 7.82018 18.4488 8.21261 19.0468 8.42011C19.249 8.49026 19.4293 8.53612 19.5761 8.56953L20.1416 8.00605C21.2865 6.86085 21.2866 5.00367 20.1416 3.85859Z" fill="#191919"/>
</svg>
