<svg width="24" height="24" viewBox="0 0 24 24" fill="none" xmlns="http://www.w3.org/2000/svg">
<path d="M4.5 9C4.5 8.72386 4.27614 8.5 4 8.5C3.72386 8.5 3.5 8.72386 3.5 9C3.5 9.27614 3.72386 9.5 4 9.5C4.00195 9.5 4.0039 9.50002 4.00586 9.5C4.15417 9.49828 4.28688 9.43269 4.37891 9.32617C4.45496 9.23806 4.5 9.12556 4.5 9ZM12.4385 7.9668C12.2951 7.98787 12.1488 8 12 8C11.8509 8 11.7042 7.98796 11.5605 7.9668C11.5172 8.04421 11.4712 8.12628 11.4229 8.21289L9.63379 11.4209C9.47478 11.706 9.31847 11.9884 9.16504 12.207C9.00592 12.4336 8.7707 12.7104 8.39941 12.874C8.08885 13.0108 7.74618 13.0591 7.41016 13.0127C7.00847 12.9572 6.70652 12.7552 6.49121 12.5811C6.28359 12.4131 6.05577 12.1848 5.82422 11.9541C5.51748 11.6486 5.28186 11.4177 5.09863 11.2441C5.07419 11.2561 5.0493 11.2671 5.02441 11.2783C5.04608 11.5479 5.08022 11.874 5.12402 12.2812L5.30664 13.9863C5.46156 15.4267 5.5699 16.6688 5.75488 17.6787C5.84619 18.1772 5.94927 18.5754 6.06836 18.8799C6.18941 19.1893 6.303 19.3403 6.37891 19.4082C6.64286 19.6445 7.00933 19.8101 7.73047 19.9023C8.47952 19.9982 9.46774 20 10.9121 20H13.0879C14.5323 20 15.5205 19.9982 16.2695 19.9023C16.9907 19.8101 17.3571 19.6445 17.6211 19.4082C17.697 19.3403 17.8106 19.1893 17.9316 18.8799C18.0507 18.5754 18.1538 18.1772 18.2451 17.6787C18.4301 16.6688 18.5384 15.4267 18.6934 13.9863L18.876 12.2812C18.9198 11.874 18.9529 11.5479 18.9746 11.2783C18.9497 11.2671 18.9248 11.2561 18.9004 11.2441C18.7172 11.4177 18.4822 11.6488 18.1758 11.9541C17.9442 12.1848 17.7164 12.4131 17.5088 12.5811C17.2935 12.7552 16.9915 12.9572 16.5898 13.0127C16.2538 13.0591 15.9111 13.0108 15.6006 12.874C15.2293 12.7104 14.9941 12.4336 14.835 12.207C14.6815 11.9884 14.5252 11.706 14.3662 11.4209L12.5771 8.21289C12.5288 8.12612 12.4819 8.04433 12.4385 7.9668ZM20.5 9C20.5 8.72386 20.2761 8.5 20 8.5C19.7239 8.5 19.5 8.72386 19.5 9C19.5 9.12556 19.545 9.23806 19.6211 9.32617C19.7131 9.43269 19.8458 9.49828 19.9941 9.5C19.9961 9.50002 19.998 9.5 20 9.5C20.2761 9.5 20.5 9.27614 20.5 9ZM13 5C13 4.44772 12.5523 4 12 4C11.4477 4 11 4.44772 11 5C11 5.38744 11.2203 5.72494 11.5469 5.8916C11.6818 5.96044 11.8348 6 12 6C12.1652 6 12.3182 5.96044 12.4531 5.8916C12.7797 5.72494 13 5.38744 13 5ZM15 5C15 5.78387 14.698 6.49558 14.207 7.0293C14.2453 7.09776 14.2847 7.16744 14.3242 7.23828L16.1133 10.4473C16.2298 10.6562 16.3137 10.8019 16.3789 10.9102C16.4718 10.8237 16.594 10.7071 16.7646 10.5371C17.0617 10.2412 17.3424 9.95802 17.6055 9.71484C17.5378 9.48805 17.5 9.24829 17.5 9C17.5 7.61929 18.6193 6.5 20 6.5C21.3807 6.5 22.5 7.61929 22.5 9C22.5 10.0329 21.8732 10.9187 20.9795 11.2998C20.9791 11.305 20.9799 11.3102 20.9795 11.3154C20.9559 11.6487 20.9134 12.0469 20.8652 12.4951L20.6816 14.2002C20.5345 15.5686 20.4155 16.933 20.2129 18.0391C20.1104 18.5986 19.9797 19.1361 19.7949 19.6084C19.6122 20.0756 19.3522 20.543 18.9551 20.8984C18.2729 21.509 17.4568 21.7663 16.5234 21.8857C15.618 22.0016 14.4793 22 13.0879 22H10.9121C9.5207 22 8.38196 22.0016 7.47656 21.8857C6.54323 21.7663 5.72706 21.509 5.04492 20.8984C4.64783 20.543 4.38784 20.0756 4.20508 19.6084C4.02033 19.1361 3.88958 18.5986 3.78711 18.0391C3.58452 16.933 3.46554 15.5686 3.31836 14.2002L3.13477 12.4951C3.08656 12.0469 3.04412 11.6487 3.02051 11.3154C3.02014 11.3102 3.01989 11.305 3.01953 11.2998C2.12628 10.9185 1.5 10.0326 1.5 9C1.5 7.61929 2.61929 6.5 4 6.5C5.38071 6.5 6.5 7.61929 6.5 9C6.5 9.24838 6.46128 9.48797 6.39355 9.71484C6.65677 9.95813 6.93809 10.241 7.23535 10.5371C7.40569 10.7068 7.52729 10.8238 7.62012 10.9102C7.6854 10.8019 7.77003 10.6565 7.88672 10.4473L9.67578 7.23828C9.71521 7.16759 9.75377 7.09762 9.79199 7.0293C9.30127 6.49564 9 5.78364 9 5C9 3.34315 10.3431 2 12 2C13.6569 2 15 3.34315 15 5Z" fill="#191919"/>
<path d="M19 16.5C19.5523 16.5 20 16.9477 20 17.5C20 18.0523 19.5523 18.5 19 18.5H5C4.44772 18.5 4 18.0523 4 17.5C4 16.9477 4.44772 16.5 5 16.5H19Z" fill="#191919"/>
</svg>
