<svg width="24" height="24" viewBox="0 0 24 24" fill="none" xmlns="http://www.w3.org/2000/svg">
<path d="M20 11.5C20 6.80558 16.1944 3 11.5 3C6.80558 3 3 6.80558 3 11.5C3 16.1944 6.80558 20 11.5 20C16.1944 20 20 16.1944 20 11.5ZM22 11.5C22 17.299 17.299 22 11.5 22C5.70101 22 1 17.299 1 11.5C1 5.70101 5.70101 1 11.5 1C17.299 1 22 5.70101 22 11.5Z" fill="#191919"/>
<path d="M17.793 17.7929C18.1835 17.4024 18.8165 17.4024 19.207 17.7929L22.707 21.2929C23.0975 21.6834 23.0975 22.3164 22.707 22.707C22.3165 23.0975 21.6835 23.0975 21.293 22.707L17.793 19.207C17.4024 18.8164 17.4024 18.1834 17.793 17.7929Z" fill="#191919"/>
</svg>
