<svg width="24" height="24" viewBox="0 0 24 24" fill="none" xmlns="http://www.w3.org/2000/svg">
<path d="M14 12C14 10.8954 13.1046 10 12 10C10.8954 10 10 10.8954 10 12C10 13.1046 10.8954 14 12 14C13.1046 14 14 13.1046 14 12ZM16 12C16 14.2091 14.2091 16 12 16C9.79086 16 8 14.2091 8 12C8 9.79086 9.79086 8 12 8C14.2091 8 16 9.79086 16 12Z" fill="#191919"/>
<path d="M18.562 12C18.5621 11.0683 19.0695 10.2555 19.8071 9.79199C20.1029 9.60611 20.1854 9.52119 20.2212 9.47461C20.3827 9.2642 20.4541 8.9983 20.4194 8.73535C20.4135 8.69065 20.3928 8.60234 20.2925 8.39746C20.188 8.18416 20.0342 7.91531 19.7944 7.5C19.5546 7.08463 19.3996 6.81629 19.2671 6.61914C19.1397 6.42955 19.0724 6.36824 19.0366 6.34082C18.8262 6.17943 18.5603 6.10797 18.2974 6.14258C18.2391 6.15031 18.1238 6.17956 17.815 6.34277C17.0447 6.74979 16.0877 6.78326 15.2808 6.31738C14.474 5.85155 14.0244 5.00616 13.9917 4.13574C13.9786 3.7862 13.9468 3.67146 13.9243 3.61719C13.8228 3.37216 13.6274 3.17767 13.3823 3.07617C13.3406 3.05893 13.2534 3.03212 13.0259 3.0166C12.789 3.00046 12.4789 3 11.9995 3C11.5204 3 11.211 3.00046 10.9741 3.0166C10.7467 3.03212 10.6594 3.05893 10.6177 3.07617C10.3727 3.17767 10.1772 3.37216 10.0757 3.61719C10.0532 3.67146 10.0214 3.78615 10.0083 4.13574C9.97564 5.00616 9.52606 5.85156 8.71925 6.31738C7.91234 6.78325 6.95527 6.74982 6.18507 6.34277C5.87612 6.17948 5.76095 6.15029 5.70265 6.14258C5.43972 6.10796 5.1738 6.17939 4.96339 6.34082C4.92769 6.36822 4.86117 6.42984 4.7339 6.61914C4.60141 6.81629 4.44539 7.08463 4.20558 7.5C3.96583 7.91527 3.81201 8.18418 3.70754 8.39746C3.60717 8.60239 3.58648 8.69068 3.58058 8.73535C3.54596 8.9983 3.61737 9.2642 3.77882 9.47461C3.81458 9.52119 3.89713 9.60613 4.19289 9.79199C4.93059 10.2555 5.43803 11.0681 5.438 12C5.43795 12.9318 4.93054 13.7445 4.19289 14.208C3.89711 14.3939 3.81459 14.4788 3.77882 14.5254C3.61737 14.7358 3.54596 15.0017 3.58058 15.2646C3.58649 15.3094 3.60719 15.3977 3.70754 15.6025C3.81202 15.8158 3.9658 16.0847 4.20558 16.5C4.44539 16.9154 4.60043 17.1837 4.73293 17.3809C4.86035 17.5704 4.92767 17.6318 4.96339 17.6592C5.17379 17.8206 5.43976 17.892 5.70265 17.8574C5.76098 17.8497 5.87632 17.8204 6.18507 17.6572C6.95528 17.2502 7.91234 17.2167 8.71925 17.6826C9.52604 18.1485 9.97562 18.9938 10.0083 19.8643C10.0214 20.2138 10.0532 20.3285 10.0757 20.3828C10.1772 20.6278 10.3727 20.8223 10.6177 20.9238C10.6594 20.9411 10.7467 20.9679 10.9741 20.9834C11.211 20.9995 11.5204 21 11.9995 21C12.4789 21 12.789 20.9995 13.0259 20.9834C13.2534 20.9679 13.3406 20.9411 13.3823 20.9238C13.6274 20.8223 13.8228 20.6278 13.9243 20.3828C13.9468 20.3285 13.9786 20.2139 13.9917 19.8643C14.0244 18.9938 14.474 18.1485 15.2808 17.6826C16.0877 17.2167 17.0447 17.2502 17.815 17.6572C18.1239 17.8205 18.2391 17.8497 18.2974 17.8574C18.5603 17.892 18.8262 17.8206 19.0366 17.6592C19.0724 17.6318 19.1387 17.5696 19.2661 17.3799C19.3986 17.1827 19.5547 16.9153 19.7944 16.5C20.0342 16.0847 20.188 15.8158 20.2925 15.6025C20.3928 15.3977 20.4135 15.3094 20.4194 15.2646C20.4541 15.0017 20.3826 14.7358 20.2212 14.5254C20.1855 14.4788 20.103 14.3939 19.8071 14.208C19.0695 13.7445 18.562 12.9318 18.562 12ZM20.562 12C20.562 12.1843 20.6634 12.3833 20.8706 12.5137C21.2174 12.7316 21.5491 12.97 21.8081 13.3076C22.2924 13.9388 22.5067 14.7366 22.4028 15.5254C22.3568 15.875 22.2347 16.1856 22.0894 16.4824C21.9479 16.7712 21.752 17.1083 21.5259 17.5C21.2998 17.8916 21.1056 18.2292 20.9263 18.4961C20.7419 18.7704 20.5342 19.0314 20.2544 19.2461C19.6232 19.7304 18.8255 19.9437 18.0366 19.8398C17.6148 19.7843 17.2425 19.6162 16.8804 19.4248C16.6639 19.3105 16.4404 19.3229 16.2808 19.415C16.1212 19.5073 15.9989 19.6947 15.9898 19.9395C15.9745 20.3487 15.9348 20.7553 15.772 21.1484C15.4675 21.8834 14.883 22.467 14.148 22.7715C13.8221 22.9065 13.4924 22.956 13.1626 22.9785C12.8418 23.0004 12.4518 23 11.9995 23C11.5475 23 11.1582 23.0004 10.8374 22.9785C10.5077 22.956 10.1779 22.9064 9.85207 22.7715C9.11706 22.467 8.53255 21.8834 8.22804 21.1484C8.0652 20.7553 8.02558 20.3487 8.01027 19.9395C8.00112 19.6947 7.87884 19.5073 7.71925 19.415C7.55956 19.3228 7.33625 19.3113 7.11964 19.4258C6.75754 19.6172 6.38528 19.7853 5.96339 19.8408C5.1746 19.9447 4.37683 19.7304 3.74562 19.2461C3.46582 19.0314 3.25811 18.7704 3.07375 18.4961C2.89439 18.2292 2.70022 17.8916 2.47414 17.5C2.24801 17.1083 2.05213 16.7712 1.91066 16.4824C1.76531 16.1856 1.64321 15.875 1.59718 15.5254C1.49339 14.7366 1.70759 13.9388 2.19191 13.3076C2.45095 12.9701 2.78266 12.7315 3.12941 12.5137C3.33663 12.3833 3.43798 12.1843 3.438 12C3.43801 11.8156 3.33692 11.6157 3.12941 11.4854C2.7827 11.2675 2.45092 11.0299 2.19191 10.6924C1.70761 10.0612 1.49342 9.26336 1.59718 8.47461C1.64321 8.12502 1.76533 7.81434 1.91066 7.51758C2.05213 7.22877 2.24801 6.89167 2.47414 6.5C2.70025 6.10837 2.89438 5.7708 3.07375 5.50391C3.25812 5.22958 3.4658 4.96863 3.74562 4.75391C4.37682 4.26957 5.1746 4.05537 5.96339 4.15918C6.38528 4.21472 6.75754 4.38284 7.11964 4.57422C7.33623 4.68869 7.55958 4.67715 7.71925 4.58496C7.87884 4.49273 8.00112 4.30526 8.01027 4.06055C8.02558 3.65128 8.0652 3.24469 8.22804 2.85156C8.53255 2.11658 9.11706 1.53297 9.85207 1.22852C10.1779 1.09355 10.5077 1.04399 10.8374 1.02148C11.1582 0.999601 11.5475 1 11.9995 1C12.4518 1 12.8418 0.999594 13.1626 1.02148C13.4924 1.044 13.8221 1.09355 14.148 1.22852C14.883 1.53297 15.4675 2.11658 15.772 2.85156C15.9348 3.24469 15.9745 3.65128 15.9898 4.06055C15.9989 4.30528 16.1212 4.49271 16.2808 4.58496C16.4405 4.67716 16.6638 4.6887 16.8804 4.57422C17.2425 4.38284 17.6147 4.21472 18.0366 4.15918C18.8254 4.05535 19.6232 4.26959 20.2544 4.75391C20.5342 4.96861 20.7419 5.2296 20.9263 5.50391C21.1056 5.77078 21.2998 6.1084 21.5259 6.5C21.752 6.89167 21.9479 7.22877 22.0894 7.51758C22.2347 7.81436 22.3568 8.12498 22.4028 8.47461C22.5066 9.26339 22.2924 10.0612 21.8081 10.6924C21.5491 11.0299 21.2174 11.2684 20.8706 11.4863C20.6634 11.6167 20.562 11.8157 20.562 12Z" fill="#191919"/>
</svg>
