<svg width="24" height="24" viewBox="0 0 24 24" fill="none" xmlns="http://www.w3.org/2000/svg">
<path d="M12 1C12.953 1 13.6071 1.60354 14.0977 2.24414C14.5877 2.88409 15.1037 3.81505 15.7207 4.92188L16.0479 5.50977C16.4506 6.23229 16.5253 6.32437 16.5996 6.38086C16.6677 6.43257 16.76 6.47475 17.5449 6.65234L18.1807 6.79688C19.3765 7.06744 20.3906 7.29326 21.1309 7.58496C21.89 7.88411 22.6173 8.35016 22.8975 9.25098C23.1741 10.1407 22.8537 10.9433 22.416 11.6387C21.985 12.3234 21.2964 13.1248 20.4795 14.0801L20.0459 14.5869C19.5154 15.2073 19.4509 15.3123 19.419 15.415C19.3858 15.522 19.3799 15.6556 19.46 16.4814L19.5264 17.1582C19.65 18.4339 19.755 19.4999 19.7188 20.3145C19.6824 21.1308 19.4951 21.9903 18.749 22.5566C17.9869 23.135 17.1116 23.0552 16.3359 22.833C15.5729 22.6144 14.6255 22.1747 13.5059 21.6592L12.9102 21.3848C12.1721 21.0449 12.0763 21.0244 12 21.0244C11.9237 21.0244 11.8279 21.0449 11.0898 21.3848L10.4941 21.6592C9.37455 22.1747 8.42709 22.6144 7.66407 22.833C6.88841 23.0552 6.01312 23.135 5.25098 22.5566C4.50495 21.9903 4.31762 21.1308 4.28125 20.3145C4.24501 19.4999 4.35002 18.4339 4.47364 17.1582L4.54004 16.4814C4.62008 15.6556 4.61424 15.522 4.58106 15.415C4.5491 15.3123 4.48461 15.2073 3.95411 14.5869L3.52051 14.0801C2.70356 13.1248 2.01501 12.3234 1.58399 11.6387C1.14628 10.9433 0.825938 10.1407 1.10254 9.25098C1.38267 8.35016 2.11006 7.88411 2.86915 7.58496C3.60938 7.29326 4.62353 7.06744 5.81934 6.79688L6.45508 6.65234C7.24001 6.47475 7.33228 6.43257 7.4004 6.38086C7.4747 6.32437 7.54938 6.23229 7.95215 5.50977L8.2793 4.92188C8.89629 3.81505 9.41231 2.88409 9.90235 2.24414C10.3929 1.60354 11.047 1 12 1ZM12 3C11.9834 3 11.9569 2.99898 11.8897 3.04395C11.8046 3.10084 11.6742 3.21969 11.4902 3.45996C11.1103 3.95614 10.676 4.73017 10.0264 5.89551L9.69922 6.4834C9.38276 7.05111 9.09618 7.60507 8.60938 7.97461C8.11633 8.34877 7.50938 8.46484 6.89649 8.60352L6.25977 8.74707C4.99616 9.03298 4.16524 9.22454 3.60254 9.44629C3.05892 9.66053 3.02518 9.80454 3.0127 9.84473C2.99684 9.89572 2.94915 10.0533 3.27637 10.5732C3.61062 11.1042 4.18015 11.7747 5.04004 12.7803L5.47364 13.2871C5.89608 13.7811 6.30876 14.2339 6.49122 14.8203C6.67228 15.4026 6.59423 16.0139 6.53028 16.6738L6.46485 17.3506C6.33499 18.6907 6.25087 19.5868 6.2793 20.2256C6.30768 20.8627 6.43997 20.9487 6.45997 20.9639C6.46554 20.969 6.55325 21.0706 7.11329 20.9102C7.69325 20.744 8.47392 20.3876 9.65723 19.8428L10.2529 19.5684C10.8235 19.3056 11.3826 19.0244 12 19.0244C12.6174 19.0244 13.1765 19.3056 13.7471 19.5684L14.3428 19.8428C15.5261 20.3876 16.3068 20.744 16.8867 20.9102C17.4468 21.0706 17.5345 20.969 17.54 20.9639C17.56 20.9487 17.6923 20.8627 17.7207 20.2256C17.7491 19.5868 17.665 18.6907 17.5352 17.3506L17.4697 16.6738C17.4058 16.0139 17.3277 15.4026 17.5088 14.8203C17.6912 14.2339 18.1039 13.7811 18.5264 13.2871L18.96 12.7803C19.8199 11.7747 20.3894 11.1042 20.7236 10.5732C21.0509 10.0533 21.0032 9.89572 20.9873 9.84473C20.9748 9.80455 20.9411 9.66053 20.3975 9.44629C19.8348 9.22454 19.0038 9.03297 17.7402 8.74707L17.1035 8.60352C16.4906 8.46484 15.8837 8.34877 15.3906 7.97461C14.9038 7.60507 14.6172 7.05111 14.3008 6.4834L13.9736 5.89551C13.324 4.73017 12.8897 3.95614 12.5098 3.45996C12.3258 3.21969 12.1954 3.10084 12.1104 3.04395C12.0431 2.99898 12.0166 3 12 3Z" fill="#191919"/>
</svg>
