<svg width="24" height="24" viewBox="0 0 24 24" fill="none" xmlns="http://www.w3.org/2000/svg">
<path d="M16 21C16.5523 21 17 21.4477 17 22C17 22.5523 16.5523 23 16 23H8C7.44772 23 7 22.5523 7 22C7 21.4477 7.44772 21 8 21H16Z" fill="#191919"/>
<path d="M19 18C19.5523 18 20 18.4477 20 19C20 19.5523 19.5523 20 19 20H5C4.44772 20 4 19.5523 4 19C4 18.4477 4.44772 18 5 18H19Z" fill="#191919"/>
<path d="M22 15C22.5523 15 23 15.4477 23 16C23 16.5523 22.5523 17 22 17H2C1.44772 17 1 16.5523 1 16C1 15.4477 1.44772 15 2 15H22Z" fill="#191919"/>
<path d="M17 12C17 9.23858 14.7614 7 12 7C9.23858 7 7 9.23858 7 12C7 13.1125 7.36251 14.1383 7.97656 14.9688H16.0234C16.6375 14.1383 17 13.1125 17 12ZM19 12C19 13.7746 18.3386 15.3975 17.25 16.6309L16.9512 16.9688H7.04883L6.75 16.6309C5.6614 15.3975 5 13.7746 5 12C5 8.13401 8.13401 5 12 5C15.866 5 19 8.13401 19 12Z" fill="#191919"/>
<path d="M11 3V2C11 1.44772 11.4477 1 12 1C12.5523 1 13 1.44772 13 2V3C13 3.55228 12.5523 4 12 4C11.4477 4 11 3.55228 11 3Z" fill="#191919"/>
<path d="M21 11L22 11C22.5523 11 23 11.4477 23 12C23 12.5523 22.5523 13 22 13L21 13C20.4477 13 20 12.5523 20 12C20 11.4477 20.4477 11 21 11Z" fill="#191919"/>
<path d="M2 11L3 11C3.55228 11 4 11.4477 4 12C4 12.5523 3.55228 13 3 13L2 13C1.44772 13 1 12.5523 1 12C1 11.4477 1.44772 11 2 11Z" fill="#191919"/>
<path d="M17.9708 4.61516L18.3637 4.22224C18.7542 3.83172 19.3874 3.83172 19.7779 4.22224C20.1684 4.61277 20.1684 5.24593 19.7779 5.63646L19.385 6.02937C18.9945 6.41982 18.3613 6.41987 17.9708 6.02937C17.5803 5.63887 17.5803 5.00569 17.9708 4.61516Z" fill="#191919"/>
<path d="M5.63597 4.22176L6.02889 4.61467C6.41941 5.00519 6.41941 5.63836 6.02889 6.02888C5.63836 6.41941 5.0052 6.41941 4.61467 6.02888L4.22176 5.63597C3.83131 5.24544 3.83126 4.61226 4.22176 4.22176C4.61226 3.83126 5.24544 3.83131 5.63597 4.22176Z" fill="#191919"/>
</svg>
