<svg width="24" height="24" viewBox="0 0 24 24" fill="none" xmlns="http://www.w3.org/2000/svg">
<path d="M11.9998 1C13.7429 1 15.2236 2.11475 15.7722 3.66699C15.956 4.18749 15.6832 4.75819 15.1628 4.94238C14.6421 5.12643 14.0705 4.85372 13.8865 4.33301C13.6114 3.55496 12.8689 3 11.9998 3C11.1306 3.00008 10.3881 3.55496 10.113 4.33301C9.929 4.8537 9.35835 5.12638 8.83765 4.94238C8.31696 4.75834 8.04428 4.18769 8.22827 3.66699C8.77689 2.11481 10.2567 1.00008 11.9998 1Z" fill="#191919"/>
<path d="M20.4999 5C21.0522 5 21.4999 5.44772 21.4999 6C21.4999 6.55228 21.0522 7 20.4999 7H3.49991C2.94762 7 2.49991 6.55228 2.49991 6C2.49991 5.44772 2.94762 5 3.49991 5H20.4999Z" fill="#191919"/>
<path d="M18.9001 7.50201C19.451 7.53884 19.8674 8.0155 19.8307 8.56646L19.3708 15.4659C19.2841 16.766 19.2147 17.8388 19.0466 18.6827C18.8728 19.5546 18.5708 20.318 17.9264 20.921C17.2818 21.524 16.4996 21.7753 15.6178 21.8907C14.7646 22.0023 13.6895 22.0001 12.3864 22.0001H11.613C10.3102 22.0001 9.23557 22.0022 8.38249 21.8907C7.50073 21.7753 6.71852 21.524 6.0739 20.921C5.42934 20.3179 5.12654 19.5547 4.9528 18.6827C4.78469 17.8388 4.71526 16.7661 4.62859 15.4659L4.16862 8.56646C4.13196 8.01545 4.54925 7.53874 5.10026 7.50201C5.65127 7.46534 6.12798 7.88263 6.16472 8.43365L6.62468 15.3331C6.71497 16.6875 6.7781 17.6063 6.91472 18.292C7.04572 18.9494 7.21976 19.2548 7.44011 19.461C7.66046 19.6671 7.97666 19.8203 8.64128 19.9073C9.33465 19.998 10.2555 20.0001 11.613 20.0001H12.3864C13.7438 20.0001 14.6647 19.9979 15.3581 19.9073C16.0225 19.8204 16.3389 19.667 16.5592 19.461C16.7796 19.2548 16.9546 18.9495 17.0856 18.292C17.2222 17.6063 17.2854 16.6875 17.3757 15.3331L17.8356 8.43365C17.8724 7.88259 18.349 7.46527 18.9001 7.50201Z" fill="#191919"/>
<path d="M9.40039 10.0049C9.9499 9.94996 10.4401 10.3509 10.4951 10.9004L10.9951 15.9004C11.0501 16.4499 10.6491 16.9401 10.0996 16.9951C9.5501 17.0501 9.05989 16.6491 9.00488 16.0996L8.50488 11.0996C8.44993 10.5501 8.8509 10.0599 9.40039 10.0049Z" fill="#191919"/>
<path d="M14.5996 10.0049C15.1491 10.0599 15.5501 10.5501 15.4951 11.0996L14.9951 16.0996C14.9401 16.6491 14.4499 17.0501 13.9004 16.9951C13.3509 16.9401 12.9499 16.4499 13.0049 15.9004L13.5049 10.9004C13.5599 10.3509 14.0501 9.94996 14.5996 10.0049Z" fill="#191919"/>
</svg>
