<svg width="24" height="24" viewBox="0 0 24 24" fill="none" xmlns="http://www.w3.org/2000/svg">
<path d="M15 6C15 4.34315 13.6569 3 12 3C10.3431 3 9 4.34315 9 6C9 7.65685 10.3431 9 12 9C13.6569 9 15 7.65685 15 6ZM17 6C17 8.76142 14.7614 11 12 11C9.23858 11 7 8.76142 7 6C7 3.23858 9.23858 1 12 1C14.7614 1 17 3.23858 17 6Z" fill="#191919"/>
<path d="M18 17C18 16.4092 17.5713 15.679 16.4531 15.04C15.3632 14.4173 13.7911 14 12 14C10.2089 14 8.63679 14.4173 7.54688 15.04C6.42866 15.679 6 16.4092 6 17C6 17.5908 6.42866 18.321 7.54688 18.96C8.63679 19.5827 10.2089 20 12 20C13.7911 20 15.3632 19.5827 16.4531 18.96C17.5713 18.321 18 17.5908 18 17ZM20 17C20 18.6181 18.8614 19.8875 17.4463 20.6963C16.0027 21.5212 14.0748 22 12 22C9.92522 22 7.99729 21.5212 6.55371 20.6963C5.13864 19.8875 4 18.6181 4 17C4 15.3819 5.13864 14.1125 6.55371 13.3037C7.99729 12.4788 9.92522 12 12 12C14.0748 12 16.0027 12.4788 17.4463 13.3037C18.8614 14.1125 20 15.3819 20 17Z" fill="#191919"/>
</svg>
