<svg width="24" height="24" viewBox="0 0 24 24" fill="none" xmlns="http://www.w3.org/2000/svg">
<path d="M11 5.5C11 4.67157 10.3284 4 9.5 4C8.67157 4 8 4.67157 8 5.5V5.85742C7.99985 6.40958 7.55219 6.85742 7 6.85742C6.44781 6.85742 6.00015 6.40958 6 5.85742V5.5C6 3.567 7.567 2 9.5 2C11.433 2 13 3.567 13 5.5C13 7.433 11.433 9 9.5 9H3C2.44772 9 2 8.55228 2 8C2 7.44772 2.44772 7 3 7H9.5C10.3284 7 11 6.32843 11 5.5Z" fill="#191919"/>
<path d="M14 17.5V17C14 16.4477 14.4477 16 15 16C15.5523 16 16 16.4477 16 17V17.5C16 18.8807 17.1193 20 18.5 20C19.8807 20 21 18.8807 21 17.5C21 16.1193 19.8807 15 18.5 15H4C3.44772 15 3 14.5523 3 14C3 13.4477 3.44772 13 4 13H18.5C20.9853 13 23 15.0147 23 17.5C23 19.9853 20.9853 22 18.5 22C16.0147 22 14 19.9853 14 17.5Z" fill="#191919"/>
<path d="M21 7.5C21 6.11929 19.8807 5 18.5 5C17.1193 5 16 6.11929 16 7.5V8C16 8.55228 15.5523 9 15 9C14.4477 9 14 8.55228 14 8V7.5C14 5.01472 16.0147 3 18.5 3C20.9853 3 23 5.01472 23 7.5C23 9.98528 20.9853 12 18.5 12H2C1.44772 12 1 11.5523 1 11C1 10.4477 1.44772 10 2 10H18.5C19.8807 10 21 8.88071 21 7.5Z" fill="#191919"/>
</svg>
